<?xml version="1.0" encoding="UTF-8" standalone="no"?>
<svg width="393.7mm" height="496.094mm"
 xmlns="http://www.w3.org/2000/svg" xmlns:xlink="http://www.w3.org/1999/xlink"  version="1.2" baseProfile="tiny">
<desc>Created by HiQPdf</desc>
<defs>
</defs>
<g fill="none" stroke="black" stroke-width="1" fill-rule="evenodd" stroke-linecap="square" stroke-linejoin="bevel" >

<g fill="#000000" fill-opacity="1" stroke="#000000" stroke-opacity="1" stroke-width="1" stroke-linecap="square" stroke-linejoin="miter" stroke-miterlimit="2" transform="matrix(1,0,0,1,0,0)"
>
</g>

<g fill="#000000" fill-opacity="1" stroke="#000000" stroke-opacity="1" stroke-width="1" stroke-linecap="square" stroke-linejoin="miter" stroke-miterlimit="2" transform="matrix(1,0,0,1,0,0)"
>
</g>

<g fill="#000000" fill-opacity="1" stroke="#000000" stroke-opacity="1" stroke-width="1" stroke-linecap="square" stroke-linejoin="miter" stroke-miterlimit="2" transform="matrix(1,0,0,1,0,0)"
>
</g>

<g fill="#1a1a1d" fill-opacity="1" stroke="none" transform="matrix(1,0,0,1,0,0)"
>
<path vector-effect="none" fill-rule="evenodd" d="M0,0 L1488,0 L1488,1875 L0,1875 L0,0"/>
</g>

<g fill="#1f2833" fill-opacity="1" stroke="none" transform="matrix(1,0,0,1,0,0)"
>
<path vector-effect="none" fill-rule="evenodd" d="M255,9 L1233,9 C1246.81,9 1258,20.1929 1258,34 L1258,121 C1258,134.807 1246.81,146 1233,146 L255,146 C241.193,146 230,134.807 230,121 L230,34 C230,20.1929 241.193,9 255,9 "/>
</g>

<g fill="#66fcf1" fill-opacity="1" stroke="none" transform="matrix(1,0,0,1,0,0)"
>
<path vector-effect="none" fill-rule="evenodd" d="M254,8 L1234,8 C1247.81,8 1259,19.1929 1259,33 L1259,122 C1259,135.807 1247.81,147 1234,147 L254,147 C240.193,147 229,135.807 229,122 L229,33 C229,19.1929 240.193,8 254,8 M254,12 L1234,12 C1245.6,12 1255,21.402 1255,33 L1255,122 C1255,133.598 1245.6,143 1234,143 L254,143 C242.402,143 233,133.598 233,122 L233,33 C233,21.402 242.402,12 254,12 "/>
</g>

<g fill="#44a8a1" fill-opacity="1" stroke="none" transform="matrix(1,0,0,1,0,0)"
>
<path vector-effect="none" fill-rule="evenodd" d="M233,12 L1255,12 L1255,13 L233,13 L233,12"/>
</g>

<g fill="#66fcf1" fill-opacity="1" stroke="none" transform="matrix(1,0,0,1,0,0)"
>
<path vector-effect="none" fill-rule="evenodd" d="M233,142 L1255,142 L1255,143 L233,143 L233,142"/>
</g>

<g fill="#44a8a1" fill-opacity="1" stroke="none" transform="matrix(1,0,0,1,0,0)"
>
<path vector-effect="none" fill-rule="evenodd" d="M233,12 L233,143 L234,142 L234,12 L233,12"/>
</g>

<g fill="#66fcf1" fill-opacity="1" stroke="none" transform="matrix(1,0,0,1,0,0)"
>
<path vector-effect="none" fill-rule="evenodd" d="M1254,13 L1254,143 L1255,143 L1255,12 L1254,13"/>
</g>

<g fill="#808080" fill-opacity="1" stroke="none" transform="matrix(1,0,0,1,0,0)"
>
<path vector-effect="none" fill-rule="evenodd" d="M8,1746 L1480,1746 L1480,1748 L8,1748 L8,1746"/>
</g>

<g fill="#808080" fill-opacity="1" stroke="none" transform="matrix(1,0,0,1,0,0)"
>
<path vector-effect="none" fill-rule="evenodd" d="M8,1746 L1480,1746 L1480,1747 L8,1747 L8,1746"/>
</g>

<g fill="#808080" fill-opacity="1" stroke="none" transform="matrix(1,0,0,1,0,0)"
>
<path vector-effect="none" fill-rule="evenodd" d="M8,1747 L1480,1747 L1480,1748 L8,1748 L8,1747"/>
</g>

<g fill="#808080" fill-opacity="1" stroke="none" transform="matrix(1,0,0,1,0,0)"
>
<path vector-effect="none" fill-rule="evenodd" d="M8,1746 L9,1746 L9,1748 L8,1748 L8,1746"/>
</g>

<g fill="#808080" fill-opacity="1" stroke="none" transform="matrix(1,0,0,1,0,0)"
>
<path vector-effect="none" fill-rule="evenodd" d="M1479,1746 L1480,1746 L1480,1748 L1479,1748 L1479,1746"/>
</g>

<g fill="#66fcf1" fill-opacity="1" stroke="#66fcf1" stroke-opacity="1" stroke-width="1" stroke-linecap="square" stroke-linejoin="bevel" transform="matrix(1,0,0,1,0,0)"
>
<text fill="#66fcf1" fill-opacity="1" stroke="none" xml:space="preserve" x="488.5" y="41" font-family="Garamond" font-size="32" font-weight="700" font-style="normal" 
 >COL 100: Introduction to programing</text>
</g>

<g fill="#66fcf1" fill-opacity="1" stroke="#66fcf1" stroke-opacity="1" stroke-width="1" stroke-linecap="square" stroke-linejoin="bevel" transform="matrix(1,0,0,1,0,0)"
>
<text fill="#66fcf1" fill-opacity="1" stroke="none" xml:space="preserve" x="610.5" y="77" font-family="Garamond" font-size="32" font-weight="700" font-style="normal" 
 >(Sem II, 2020-2021) </text>
</g>

<g fill="#000000" fill-opacity="1" stroke="#000000" stroke-opacity="1" stroke-width="1" stroke-linecap="square" stroke-linejoin="bevel" transform="matrix(1,0,0,1,0,0)"
>
<text fill="#000000" fill-opacity="1" stroke="none" xml:space="preserve" x="340" y="172" font-family="Arial" font-size="16" font-weight="400" font-style="normal" 
 >This page will be updated regularly. Please visit (and reload) often. You are responsible for all </text>
</g>

<g fill="#000000" fill-opacity="1" stroke="#000000" stroke-opacity="1" stroke-width="1" stroke-linecap="square" stroke-linejoin="bevel" transform="matrix(1,0,0,1,0,0)"
>
<text fill="#000000" fill-opacity="1" stroke="none" xml:space="preserve" x="981" y="172" font-family="Arial" font-size="16" font-weight="400" font-style="normal" 
 >information on this page</text>
</g>

<g fill="#1e90ff" fill-opacity="1" stroke="none" transform="matrix(1,0,0,1,0,0)"
>
<path vector-effect="none" fill-rule="evenodd" d="M13,197 L73,197 C75.7614,197 78,199.239 78,202 L78,240 C78,242.761 75.7614,245 73,245 L13,245 C10.2386,245 8,242.761 8,240 L8,202 C8,199.239 10.2386,197 13,197 "/>
</g>

<g fill="#ffffff" fill-opacity="1" stroke="#ffffff" stroke-opacity="1" stroke-width="1" stroke-linecap="square" stroke-linejoin="bevel" transform="matrix(1,0,0,1,0,0)"
>
<text fill="#ffffff" fill-opacity="1" stroke="none" xml:space="preserve" x="22" y="226" font-family="Arial" font-size="17" font-weight="400" font-style="normal" 
 >Home</text>
</g>

<g fill="#000000" fill-opacity="1" stroke="#000000" stroke-opacity="1" stroke-width="1" stroke-linecap="square" stroke-linejoin="bevel" transform="matrix(1,0,0,1,0,0)"
>
<text fill="#000000" fill-opacity="1" stroke="none" xml:space="preserve" x="78" y="226" font-family="Arial" font-size="16" font-weight="400" font-style="normal" 
 > </text>
</g>

<g fill="#66fcf1" fill-opacity="1" stroke="#66fcf1" stroke-opacity="1" stroke-width="1" stroke-linecap="square" stroke-linejoin="bevel" transform="matrix(1,0,0,1,0,0)"
>
<text fill="#66fcf1" fill-opacity="1" stroke="none" xml:space="preserve" x="96" y="226" font-family="Arial" font-size="17" font-weight="400" font-style="normal" 
 >Lab Groups</text>
</g>

<g fill="#000000" fill-opacity="1" stroke="#000000" stroke-opacity="1" stroke-width="1" stroke-linecap="square" stroke-linejoin="bevel" transform="matrix(1,0,0,1,0,0)"
>
<text fill="#000000" fill-opacity="1" stroke="none" xml:space="preserve" x="195" y="226" font-family="Arial" font-size="16" font-weight="400" font-style="normal" 
 > </text>
</g>

<g fill="#66fcf1" fill-opacity="1" stroke="#66fcf1" stroke-opacity="1" stroke-width="1" stroke-linecap="square" stroke-linejoin="bevel" transform="matrix(1,0,0,1,0,0)"
>
<text fill="#66fcf1" fill-opacity="1" stroke="none" xml:space="preserve" x="213" y="226" font-family="Arial" font-size="17" font-weight="400" font-style="normal" 
 >Assignments</text>
</g>

<g fill="#000000" fill-opacity="1" stroke="#000000" stroke-opacity="1" stroke-width="1" stroke-linecap="square" stroke-linejoin="bevel" transform="matrix(1,0,0,1,0,0)"
>
<text fill="#000000" fill-opacity="1" stroke="none" xml:space="preserve" x="319" y="226" font-family="Arial" font-size="16" font-weight="400" font-style="normal" 
 > </text>
</g>

<g fill="#66fcf1" fill-opacity="1" stroke="#66fcf1" stroke-opacity="1" stroke-width="1" stroke-linecap="square" stroke-linejoin="bevel" transform="matrix(1,0,0,1,0,0)"
>
<text fill="#66fcf1" fill-opacity="1" stroke="none" xml:space="preserve" x="337" y="226" font-family="Arial" font-size="17" font-weight="400" font-style="normal" 
 >Lab Exams</text>
</g>

<g fill="#000000" fill-opacity="1" stroke="#000000" stroke-opacity="1" stroke-width="1" stroke-linecap="square" stroke-linejoin="bevel" transform="matrix(1,0,0,1,0,0)"
>
<text fill="#000000" fill-opacity="1" stroke="none" xml:space="preserve" x="431" y="226" font-family="Arial" font-size="16" font-weight="400" font-style="normal" 
 > </text>
</g>

<g fill="#66fcf1" fill-opacity="1" stroke="#66fcf1" stroke-opacity="1" stroke-width="1" stroke-linecap="square" stroke-linejoin="bevel" transform="matrix(1,0,0,1,0,0)"
>
<text fill="#66fcf1" fill-opacity="1" stroke="none" xml:space="preserve" x="449" y="226" font-family="Arial" font-size="17" font-weight="400" font-style="normal" 
 >Impartus</text>
</g>

<g fill="#66fcf1" fill-opacity="1" stroke="#66fcf1" stroke-opacity="1" stroke-width="1" stroke-linecap="square" stroke-linejoin="bevel" transform="matrix(1,0,0,1,0,0)"
>
<text fill="#66fcf1" fill-opacity="1" stroke="none" xml:space="preserve" x="23" y="281" font-family="Arial" font-size="16" font-weight="700" font-style="normal" 
 >For CP</text>
</g>

<g fill="#66fcf1" fill-opacity="1" stroke="#66fcf1" stroke-opacity="1" stroke-width="1" stroke-linecap="square" stroke-linejoin="bevel" transform="matrix(1,0,0,1,0,0)"
>
<text fill="#66fcf1" fill-opacity="1" stroke="none" xml:space="preserve" x="22" y="337" font-family="Arial" font-size="17" font-weight="400" font-style="normal" 
 >Codeforces</text>
</g>

<g fill="#000000" fill-opacity="1" stroke="#000000" stroke-opacity="1" stroke-width="1" stroke-linecap="square" stroke-linejoin="bevel" transform="matrix(1,0,0,1,0,0)"
>
<text fill="#000000" fill-opacity="1" stroke="none" xml:space="preserve" x="121" y="337" font-family="Arial" font-size="16" font-weight="400" font-style="normal" 
 > </text>
</g>

<g fill="#66fcf1" fill-opacity="1" stroke="#66fcf1" stroke-opacity="1" stroke-width="1" stroke-linecap="square" stroke-linejoin="bevel" transform="matrix(1,0,0,1,0,0)"
>
<text fill="#66fcf1" fill-opacity="1" stroke="none" xml:space="preserve" x="139" y="337" font-family="Arial" font-size="17" font-weight="400" font-style="normal" 
 >Hackearth</text>
</g>

<g fill="#ffffff" fill-opacity="1" stroke="#ffffff" stroke-opacity="1" stroke-width="1" stroke-linecap="square" stroke-linejoin="bevel" transform="matrix(1,0,0,1,0,0)"
>
<text fill="#ffffff" fill-opacity="1" stroke="none" xml:space="preserve" x="8" y="398" font-family="Arial" font-size="24" font-weight="700" font-style="normal" 
 >OVERVIEW</text>
</g>

<g fill="#ffffff" fill-opacity="1" stroke="#ffffff" stroke-opacity="1" stroke-width="1" stroke-linecap="square" stroke-linejoin="bevel" transform="matrix(1,0,0,1,0,0)"
>
<text fill="#ffffff" fill-opacity="1" stroke="none" xml:space="preserve" x="8" y="452" font-family="Courier New" font-size="25" font-weight="400" font-style="normal" 
 > COL100: Introduction to Computer Science is intended for First Year </text>
</g>

<g fill="#ffffff" fill-opacity="1" stroke="#ffffff" stroke-opacity="1" stroke-width="1" stroke-linecap="square" stroke-linejoin="bevel" transform="matrix(1,0,0,1,0,0)"
>
<text fill="#ffffff" fill-opacity="1" stroke="none" xml:space="preserve" x="8" y="481" font-family="Courier New" font-size="25" font-weight="400" font-style="normal" 
 >B. Tech. students with some prior elementary background in programming.</text>
</g>

<g fill="#ffffff" fill-opacity="1" stroke="#ffffff" stroke-opacity="1" stroke-width="1" stroke-linecap="square" stroke-linejoin="bevel" transform="matrix(1,0,0,1,0,0)"
>
<text fill="#ffffff" fill-opacity="1" stroke="none" xml:space="preserve" x="8" y="510" font-family="Courier New" font-size="25" font-weight="400" font-style="normal" 
 > The course COL100 addresses on the following issues:</text>
</g>

<g fill="#ffffff" fill-opacity="1" stroke="#ffffff" stroke-opacity="1" stroke-width="1" stroke-linecap="square" stroke-linejoin="bevel" transform="matrix(1,0,0,1,0,0)"
>
<text fill="#ffffff" fill-opacity="1" stroke="none" xml:space="preserve" x="8" y="568" font-family="Courier New" font-size="25" font-weight="400" font-style="normal" 
 >   1.Problem formulation in a precise and concise fashion and</text>
</g>

<g fill="#ffffff" fill-opacity="1" stroke="#ffffff" stroke-opacity="1" stroke-width="1" stroke-linecap="square" stroke-linejoin="bevel" transform="matrix(1,0,0,1,0,0)"
>
<text fill="#ffffff" fill-opacity="1" stroke="none" xml:space="preserve" x="8" y="597" font-family="Courier New" font-size="25" font-weight="400" font-style="normal" 
 >     independent of language considerations.</text>
</g>

<g fill="#ffffff" fill-opacity="1" stroke="#ffffff" stroke-opacity="1" stroke-width="1" stroke-linecap="square" stroke-linejoin="bevel" transform="matrix(1,0,0,1,0,0)"
>
<text fill="#ffffff" fill-opacity="1" stroke="none" xml:space="preserve" x="8" y="626" font-family="Courier New" font-size="25" font-weight="400" font-style="normal" 
 >   2.The design of an algorithm from the problem specification -- its correctness </text>
</g>

<g fill="#ffffff" fill-opacity="1" stroke="#ffffff" stroke-opacity="1" stroke-width="1" stroke-linecap="square" stroke-linejoin="bevel" transform="matrix(1,0,0,1,0,0)"
>
<text fill="#ffffff" fill-opacity="1" stroke="none" xml:space="preserve" x="8" y="655" font-family="Courier New" font-size="25" font-weight="400" font-style="normal" 
 >     and analysis of its efficiency.</text>
</g>

<g fill="#ffffff" fill-opacity="1" stroke="#ffffff" stroke-opacity="1" stroke-width="1" stroke-linecap="square" stroke-linejoin="bevel" transform="matrix(1,0,0,1,0,0)"
>
<text fill="#ffffff" fill-opacity="1" stroke="none" xml:space="preserve" x="8" y="684" font-family="Courier New" font-size="25" font-weight="400" font-style="normal" 
 >   3.The intermediate steps in the design of a program from an algorithm through a</text>
</g>

<g fill="#ffffff" fill-opacity="1" stroke="#ffffff" stroke-opacity="1" stroke-width="1" stroke-linecap="square" stroke-linejoin="bevel" transform="matrix(1,0,0,1,0,0)"
>
<text fill="#ffffff" fill-opacity="1" stroke="none" xml:space="preserve" x="8" y="713" font-family="Courier New" font-size="25" font-weight="400" font-style="normal" 
 >     process of step-wise refinement. Language dependent considerations may be used</text>
</g>

<g fill="#ffffff" fill-opacity="1" stroke="#ffffff" stroke-opacity="1" stroke-width="1" stroke-linecap="square" stroke-linejoin="bevel" transform="matrix(1,0,0,1,0,0)"
>
<text fill="#ffffff" fill-opacity="1" stroke="none" xml:space="preserve" x="8" y="742" font-family="Courier New" font-size="25" font-weight="400" font-style="normal" 
 >      in this process, but not elsewhere. </text>
</g>

<g fill="#ffffff" fill-opacity="1" stroke="#ffffff" stroke-opacity="1" stroke-width="1" stroke-linecap="square" stroke-linejoin="bevel" transform="matrix(1,0,0,1,0,0)"
>
<text fill="#ffffff" fill-opacity="1" stroke="none" xml:space="preserve" x="8" y="800" font-family="Courier New" font-size="25" font-weight="400" font-style="normal" 
 >The emphasis throughout the course is in the analysis required while designing </text>
</g>

<g fill="#ffffff" fill-opacity="1" stroke="#ffffff" stroke-opacity="1" stroke-width="1" stroke-linecap="square" stroke-linejoin="bevel" transform="matrix(1,0,0,1,0,0)"
>
<text fill="#ffffff" fill-opacity="1" stroke="none" xml:space="preserve" x="8" y="829" font-family="Courier New" font-size="25" font-weight="400" font-style="normal" 
 >correct and efficient algorithms. The course is intended to teach a student a </text>
</g>

<g fill="#ffffff" fill-opacity="1" stroke="#ffffff" stroke-opacity="1" stroke-width="1" stroke-linecap="square" stroke-linejoin="bevel" transform="matrix(1,0,0,1,0,0)"
>
<text fill="#ffffff" fill-opacity="1" stroke="none" xml:space="preserve" x="8" y="858" font-family="Courier New" font-size="25" font-weight="400" font-style="normal" 
 >systematic process of design - beginning with problem formulation from an</text>
</g>

<g fill="#ffffff" fill-opacity="1" stroke="#ffffff" stroke-opacity="1" stroke-width="1" stroke-linecap="square" stroke-linejoin="bevel" transform="matrix(1,0,0,1,0,0)"
>
<text fill="#ffffff" fill-opacity="1" stroke="none" xml:space="preserve" x="8" y="887" font-family="Courier New" font-size="25" font-weight="400" font-style="normal" 
 > informal specification, through convincing arguments to algorithms, the analysis</text>
</g>

<g fill="#ffffff" fill-opacity="1" stroke="#ffffff" stroke-opacity="1" stroke-width="1" stroke-linecap="square" stroke-linejoin="bevel" transform="matrix(1,0,0,1,0,0)"
>
<text fill="#ffffff" fill-opacity="1" stroke="none" xml:space="preserve" x="8" y="916" font-family="Courier New" font-size="25" font-weight="400" font-style="normal" 
 >  of their correctness and efficiency, and finally arriving at programs through a</text>
</g>

<g fill="#ffffff" fill-opacity="1" stroke="#ffffff" stroke-opacity="1" stroke-width="1" stroke-linecap="square" stroke-linejoin="bevel" transform="matrix(1,0,0,1,0,0)"
>
<text fill="#ffffff" fill-opacity="1" stroke="none" xml:space="preserve" x="8" y="945" font-family="Courier New" font-size="25" font-weight="400" font-style="normal" 
 >   process of step-wise refinement. A programming language bias is avoided and </text>
</g>

<g fill="#ffffff" fill-opacity="1" stroke="#ffffff" stroke-opacity="1" stroke-width="1" stroke-linecap="square" stroke-linejoin="bevel" transform="matrix(1,0,0,1,0,0)"
>
<text fill="#ffffff" fill-opacity="1" stroke="none" xml:space="preserve" x="8" y="974" font-family="Courier New" font-size="25" font-weight="400" font-style="normal" 
 >   programs are developed in both imperative and functional styles.</text>
</g>

<g fill="#ffffff" fill-opacity="1" stroke="#ffffff" stroke-opacity="1" stroke-width="1" stroke-linecap="square" stroke-linejoin="bevel" transform="matrix(1,0,0,1,0,0)"
>
<text fill="#ffffff" fill-opacity="1" stroke="none" xml:space="preserve" x="8" y="1032" font-family="Courier New" font-size="25" font-weight="400" font-style="normal" 
 >The first part of the course introduces the basics of the functional and imperative</text>
</g>

<g fill="#ffffff" fill-opacity="1" stroke="#ffffff" stroke-opacity="1" stroke-width="1" stroke-linecap="square" stroke-linejoin="bevel" transform="matrix(1,0,0,1,0,0)"
>
<text fill="#ffffff" fill-opacity="1" stroke="none" xml:space="preserve" x="8" y="1061" font-family="Courier New" font-size="25" font-weight="400" font-style="normal" 
 > models of computation, recursive and iterative processes, and the basics of </text>
</g>

<g fill="#ffffff" fill-opacity="1" stroke="#ffffff" stroke-opacity="1" stroke-width="1" stroke-linecap="square" stroke-linejoin="bevel" transform="matrix(1,0,0,1,0,0)"
>
<text fill="#ffffff" fill-opacity="1" stroke="none" xml:space="preserve" x="8" y="1090" font-family="Courier New" font-size="25" font-weight="400" font-style="normal" 
 > programming using higher-order functions. The programming languages used for </text>
</g>

<g fill="#ffffff" fill-opacity="1" stroke="#ffffff" stroke-opacity="1" stroke-width="1" stroke-linecap="square" stroke-linejoin="bevel" transform="matrix(1,0,0,1,0,0)"
>
<text fill="#ffffff" fill-opacity="1" stroke="none" xml:space="preserve" x="8" y="1119" font-family="Courier New" font-size="25" font-weight="400" font-style="normal" 
 > functional and imperative programming are Standard ML and Python, respectively.</text>
</g>

<g fill="#ffffff" fill-opacity="1" stroke="#ffffff" stroke-opacity="1" stroke-width="1" stroke-linecap="square" stroke-linejoin="bevel" transform="matrix(1,0,0,1,0,0)"
>
<text fill="#ffffff" fill-opacity="1" stroke="none" xml:space="preserve" x="8" y="1177" font-family="Courier New" font-size="25" font-weight="400" font-style="normal" 
 >The second part of the course introduces data-directed programming. It emphasizes </text>
</g>

<g fill="#ffffff" fill-opacity="1" stroke="#ffffff" stroke-opacity="1" stroke-width="1" stroke-linecap="square" stroke-linejoin="bevel" transform="matrix(1,0,0,1,0,0)"
>
<text fill="#ffffff" fill-opacity="1" stroke="none" xml:space="preserve" x="8" y="1206" font-family="Courier New" font-size="25" font-weight="400" font-style="normal" 
 >on programming with records, lists, trees, arrays and developing abstract data </text>
</g>

<g fill="#ffffff" fill-opacity="1" stroke="#ffffff" stroke-opacity="1" stroke-width="1" stroke-linecap="square" stroke-linejoin="bevel" transform="matrix(1,0,0,1,0,0)"
>
<text fill="#ffffff" fill-opacity="1" stroke="none" xml:space="preserve" x="8" y="1235" font-family="Courier New" font-size="25" font-weight="400" font-style="normal" 
 >types.</text>
</g>

<g fill="#ffffff" fill-opacity="1" stroke="#ffffff" stroke-opacity="1" stroke-width="1" stroke-linecap="square" stroke-linejoin="bevel" transform="matrix(1,0,0,1,0,0)"
>
<text fill="#ffffff" fill-opacity="1" stroke="none" xml:space="preserve" x="8" y="1293" font-family="Courier New" font-size="25" font-weight="400" font-style="normal" 
 >The third part of the course addresses the issues in design and analysis of simple</text>
</g>

<g fill="#ffffff" fill-opacity="1" stroke="#ffffff" stroke-opacity="1" stroke-width="1" stroke-linecap="square" stroke-linejoin="bevel" transform="matrix(1,0,0,1,0,0)"
>
<text fill="#ffffff" fill-opacity="1" stroke="none" xml:space="preserve" x="8" y="1322" font-family="Courier New" font-size="25" font-weight="400" font-style="normal" 
 > algorithms. Examples are taken from Divide and conquer, Backtracking, Numerical </text>
</g>

<g fill="#ffffff" fill-opacity="1" stroke="#ffffff" stroke-opacity="1" stroke-width="1" stroke-linecap="square" stroke-linejoin="bevel" transform="matrix(1,0,0,1,0,0)"
>
<text fill="#ffffff" fill-opacity="1" stroke="none" xml:space="preserve" x="8" y="1351" font-family="Courier New" font-size="25" font-weight="400" font-style="normal" 
 > algorithms, Randomized algorithms and Geometric algorithms. </text>
</g>

<g fill="#ffffff" fill-opacity="1" stroke="#000000" stroke-opacity="1" stroke-width="1" stroke-linecap="square" stroke-linejoin="miter" stroke-miterlimit="2" transform="matrix(1,0,0,1,0,0)"
>
</g>

<g fill="#ffffff" fill-opacity="1" stroke="#000000" stroke-opacity="1" stroke-width="1" stroke-linecap="square" stroke-linejoin="miter" stroke-miterlimit="2" transform="matrix(1,0,0,1,0,0)"
>
</g>

<g fill="#000000" fill-opacity="0" stroke="#c0c0c0" stroke-opacity="1" stroke-width="1" stroke-linecap="square" stroke-linejoin="miter" stroke-miterlimit="2" transform="matrix(1,0,0,1,0,0)"
>
<path vector-effect="none" fill-rule="evenodd" d="M1028,1393 L1488,1393 L1488,1738 L1028,1738 L1028,1393"/>
</g>

<g fill="#000000" fill-opacity="1" stroke="#000000" stroke-opacity="1" stroke-width="1" stroke-linecap="square" stroke-linejoin="bevel" transform="matrix(1,0,0,1,0,0)"
>
<text fill="#000000" fill-opacity="1" stroke="none" xml:space="preserve" x="1029" y="1409.44" font-family="Arial" font-size="16" font-weight="400" font-style="normal" 
 >cding</text>
</g>

<g fill="#000000" fill-opacity="1" stroke="#c0c0c0" stroke-opacity="1" stroke-width="1" stroke-linecap="square" stroke-linejoin="miter" stroke-miterlimit="2" transform="matrix(1,0,0,1,0,0)"
>
</g>

<g fill="#000000" fill-opacity="1" stroke="#c0c0c0" stroke-opacity="1" stroke-width="1" stroke-linecap="square" stroke-linejoin="miter" stroke-miterlimit="2" transform="matrix(1,0,0,1,0,0)"
>
</g>

<g fill="#000000" fill-opacity="1" stroke="#c0c0c0" stroke-opacity="1" stroke-width="1" stroke-linecap="square" stroke-linejoin="miter" stroke-miterlimit="2" transform="matrix(1,0,0,1,0,0)"
>
</g>

<g fill="#ffffff" fill-opacity="1" stroke="#000000" stroke-opacity="1" stroke-width="1" stroke-linecap="square" stroke-linejoin="miter" stroke-miterlimit="2" transform="matrix(1,0,0,1,0,0)"
>
</g>

<g fill="#ffffff" fill-opacity="1" stroke="#ffffff" stroke-opacity="1" stroke-width="1" stroke-linecap="square" stroke-linejoin="bevel" transform="matrix(1,0,0,1,0,0)"
>
<text fill="#ffffff" fill-opacity="1" stroke="none" xml:space="preserve" x="8" y="1779" font-family="Arial" font-size="16" font-weight="400" font-style="normal" 
 >Dept. of Computer Sc. &amp; Engg.</text>
</g>

<g fill="#ffffff" fill-opacity="1" stroke="#ffffff" stroke-opacity="1" stroke-width="1" stroke-linecap="square" stroke-linejoin="bevel" transform="matrix(1,0,0,1,0,0)"
>
<text fill="#ffffff" fill-opacity="1" stroke="none" xml:space="preserve" x="8" y="1798" font-family="Arial" font-size="16" font-weight="400" font-style="normal" 
 >IIT Delhi</text>
</g>

<g fill="#ffffff" fill-opacity="1" stroke="#ffffff" stroke-opacity="1" stroke-width="1" stroke-linecap="square" stroke-linejoin="bevel" transform="matrix(1,0,0,1,0,0)"
>
<text fill="#ffffff" fill-opacity="1" stroke="none" xml:space="preserve" x="8" y="1817" font-family="Arial" font-size="16" font-weight="400" font-style="normal" 
 >New Delhi 110016</text>
</g>

<g fill="#000000" fill-opacity="1" stroke="#000000" stroke-opacity="1" stroke-width="1" stroke-linecap="square" stroke-linejoin="miter" stroke-miterlimit="2" transform="matrix(1,0,0,1,0,0)"
>
</g>

<g fill="#000000" fill-opacity="1" stroke="#000000" stroke-opacity="1" stroke-width="1" stroke-linecap="square" stroke-linejoin="miter" stroke-miterlimit="2" transform="matrix(1,0,0,1,0,0)"
>
</g>

<g fill="#000000" fill-opacity="1" stroke="#000000" stroke-opacity="1" stroke-width="1" stroke-linecap="square" stroke-linejoin="miter" stroke-miterlimit="2" transform="matrix(1,0,0,1,0,0)"
>
</g>
</g>
</svg>
