<?xml version="1.0" encoding="UTF-8" standalone="no"?>
<svg width="317.5mm" height="178.065mm"
 xmlns="http://www.w3.org/2000/svg" xmlns:xlink="http://www.w3.org/1999/xlink"  version="1.2" baseProfile="tiny">
<desc>Created by HiQPdf</desc>
<defs>
</defs>
<g fill="none" stroke="black" stroke-width="1" fill-rule="evenodd" stroke-linecap="square" stroke-linejoin="bevel" >

<g fill="#000000" fill-opacity="1" stroke="#000000" stroke-opacity="1" stroke-width="1" stroke-linecap="square" stroke-linejoin="miter" stroke-miterlimit="2" transform="matrix(1,0,0,1,0,0)"
>
</g>

<g fill="#000000" fill-opacity="1" stroke="#000000" stroke-opacity="1" stroke-width="1" stroke-linecap="square" stroke-linejoin="miter" stroke-miterlimit="2" transform="matrix(1,0,0,1,0,0)"
>
</g>

<g fill="#000000" fill-opacity="1" stroke="#000000" stroke-opacity="1" stroke-width="1" stroke-linecap="square" stroke-linejoin="miter" stroke-miterlimit="2" transform="matrix(1,0,0,1,0,0)"
>
</g>

<g fill="#151515" fill-opacity="1" stroke="none" transform="matrix(1,0,0,1,0,0)"
>
<path vector-effect="none" fill-rule="evenodd" d="M0,0 L1200,0 L1200,673 L0,673 L0,0"/>
</g>

<g fill="#1f90fb" fill-opacity="1" stroke="none" transform="matrix(1,0,0,1,0,0)"
>
<path vector-effect="none" fill-rule="evenodd" d="M8,77 L1192,77 L1192,80 L8,80 L8,77"/>
</g>

<g fill="#1f90fb" fill-opacity="1" stroke="none" transform="matrix(1,0,0,1,0,0)"
>
<path vector-effect="none" fill-rule="evenodd" d="M8,118 L1192,118 L1192,119 L8,119 L8,118"/>
</g>

<g fill="#1f90fb" fill-opacity="1" stroke="none" transform="matrix(1,0,0,1,0,0)"
>
<path vector-effect="none" fill-rule="evenodd" d="M8,77 L11,77 L11,119 L8,119 L8,77"/>
</g>

<g fill="#1f90fb" fill-opacity="1" stroke="none" transform="matrix(1,0,0,1,0,0)"
>
<path vector-effect="none" fill-rule="evenodd" d="M1189,77 L1192,77 L1192,119 L1189,119 L1189,77"/>
</g>

<g fill="#1f90fb" fill-opacity="1" stroke="none" transform="matrix(1,0,0,1,0,0)"
>
<path vector-effect="none" fill-rule="evenodd" d="M130,141 L1071,141 L1071,143 L130,143 L130,141"/>
</g>

<g fill="#1f90fb" fill-opacity="1" stroke="none" transform="matrix(1,0,0,1,0,0)"
>
<path vector-effect="none" fill-rule="evenodd" d="M130,663 L1071,663 L1071,665 L130,665 L130,663"/>
</g>

<g fill="#1f90fb" fill-opacity="1" stroke="none" transform="matrix(1,0,0,1,0,0)"
>
<path vector-effect="none" fill-rule="evenodd" d="M130,141 L132,141 L132,665 L130,665 L130,141"/>
</g>

<g fill="#1f90fb" fill-opacity="1" stroke="none" transform="matrix(1,0,0,1,0,0)"
>
<path vector-effect="none" fill-rule="evenodd" d="M1069,141 L1071,141 L1071,665 L1069,665 L1069,141"/>
</g>

<g fill="#1f90fb" fill-opacity="1" stroke="none" transform="matrix(1,0,0,1,0,0)"
>
<path vector-effect="none" fill-rule="evenodd" d="M135,146 L1066,146 L1066,148 L135,148 L135,146"/>
</g>

<g fill="#1f90fb" fill-opacity="1" stroke="none" transform="matrix(1,0,0,1,0,0)"
>
<path vector-effect="none" fill-rule="evenodd" d="M135,658 L1066,658 L1066,660 L135,660 L135,658"/>
</g>

<g fill="#1f90fb" fill-opacity="1" stroke="none" transform="matrix(1,0,0,1,0,0)"
>
<path vector-effect="none" fill-rule="evenodd" d="M135,146 L137,146 L137,660 L135,660 L135,146"/>
</g>

<g fill="#1f90fb" fill-opacity="1" stroke="none" transform="matrix(1,0,0,1,0,0)"
>
<path vector-effect="none" fill-rule="evenodd" d="M1064,146 L1066,146 L1066,660 L1064,660 L1064,146"/>
</g>

<g fill="#1f90fb" fill-opacity="1" stroke="none" transform="matrix(1,0,0,1,0,0)"
>
<path vector-effect="none" fill-rule="evenodd" d="M145,156 L1056,156 L1056,158 L145,158 L145,156"/>
</g>

<g fill="#1f90fb" fill-opacity="1" stroke="none" transform="matrix(1,0,0,1,0,0)"
>
<path vector-effect="none" fill-rule="evenodd" d="M145,648 L1056,648 L1056,650 L145,650 L145,648"/>
</g>

<g fill="#1f90fb" fill-opacity="1" stroke="none" transform="matrix(1,0,0,1,0,0)"
>
<path vector-effect="none" fill-rule="evenodd" d="M145,156 L147,156 L147,650 L145,650 L145,156"/>
</g>

<g fill="#1f90fb" fill-opacity="1" stroke="none" transform="matrix(1,0,0,1,0,0)"
>
<path vector-effect="none" fill-rule="evenodd" d="M1054,156 L1056,156 L1056,650 L1054,650 L1054,156"/>
</g>

<g fill="#1f90fb" fill-opacity="1" stroke="none" transform="matrix(1,0,0,1,0,0)"
>
<path vector-effect="none" fill-rule="evenodd" d="M149,160 L236,160 L236,162 L149,162 L149,160"/>
</g>

<g fill="#1f90fb" fill-opacity="1" stroke="none" transform="matrix(1,0,0,1,0,0)"
>
<path vector-effect="none" fill-rule="evenodd" d="M149,184 L236,184 L236,186 L149,186 L149,184"/>
</g>

<g fill="#1f90fb" fill-opacity="1" stroke="none" transform="matrix(1,0,0,1,0,0)"
>
<path vector-effect="none" fill-rule="evenodd" d="M149,160 L151,160 L151,186 L149,186 L149,160"/>
</g>

<g fill="#1f90fb" fill-opacity="1" stroke="none" transform="matrix(1,0,0,1,0,0)"
>
<path vector-effect="none" fill-rule="evenodd" d="M234,160 L236,160 L236,186 L234,186 L234,160"/>
</g>

<g fill="#1f90fb" fill-opacity="1" stroke="none" transform="matrix(1,0,0,1,0,0)"
>
<path vector-effect="none" fill-rule="evenodd" d="M238,160 L400,160 L400,162 L238,162 L238,160"/>
</g>

<g fill="#1f90fb" fill-opacity="1" stroke="none" transform="matrix(1,0,0,1,0,0)"
>
<path vector-effect="none" fill-rule="evenodd" d="M238,184 L400,184 L400,186 L238,186 L238,184"/>
</g>

<g fill="#1f90fb" fill-opacity="1" stroke="none" transform="matrix(1,0,0,1,0,0)"
>
<path vector-effect="none" fill-rule="evenodd" d="M238,160 L240,160 L240,186 L238,186 L238,160"/>
</g>

<g fill="#1f90fb" fill-opacity="1" stroke="none" transform="matrix(1,0,0,1,0,0)"
>
<path vector-effect="none" fill-rule="evenodd" d="M398,160 L400,160 L400,186 L398,186 L398,160"/>
</g>

<g fill="#1f90fb" fill-opacity="1" stroke="none" transform="matrix(1,0,0,1,0,0)"
>
<path vector-effect="none" fill-rule="evenodd" d="M402,160 L658,160 L658,162 L402,162 L402,160"/>
</g>

<g fill="#1f90fb" fill-opacity="1" stroke="none" transform="matrix(1,0,0,1,0,0)"
>
<path vector-effect="none" fill-rule="evenodd" d="M402,184 L658,184 L658,186 L402,186 L402,184"/>
</g>

<g fill="#1f90fb" fill-opacity="1" stroke="none" transform="matrix(1,0,0,1,0,0)"
>
<path vector-effect="none" fill-rule="evenodd" d="M402,160 L404,160 L404,186 L402,186 L402,160"/>
</g>

<g fill="#1f90fb" fill-opacity="1" stroke="none" transform="matrix(1,0,0,1,0,0)"
>
<path vector-effect="none" fill-rule="evenodd" d="M656,160 L658,160 L658,186 L656,186 L656,160"/>
</g>

<g fill="#1f90fb" fill-opacity="1" stroke="none" transform="matrix(1,0,0,1,0,0)"
>
<path vector-effect="none" fill-rule="evenodd" d="M660,160 L1052,160 L1052,162 L660,162 L660,160"/>
</g>

<g fill="#1f90fb" fill-opacity="1" stroke="none" transform="matrix(1,0,0,1,0,0)"
>
<path vector-effect="none" fill-rule="evenodd" d="M660,184 L1052,184 L1052,186 L660,186 L660,184"/>
</g>

<g fill="#1f90fb" fill-opacity="1" stroke="none" transform="matrix(1,0,0,1,0,0)"
>
<path vector-effect="none" fill-rule="evenodd" d="M660,160 L662,160 L662,186 L660,186 L660,160"/>
</g>

<g fill="#1f90fb" fill-opacity="1" stroke="none" transform="matrix(1,0,0,1,0,0)"
>
<path vector-effect="none" fill-rule="evenodd" d="M1050,160 L1052,160 L1052,186 L1050,186 L1050,160"/>
</g>

<g fill="#66fcf1" fill-opacity="1" stroke="#66fcf1" stroke-opacity="1" stroke-width="1" stroke-linecap="square" stroke-linejoin="bevel" transform="matrix(1,0,0,1,0,0)"
>
<text fill="#66fcf1" fill-opacity="1" stroke="none" xml:space="preserve" x="152" y="178" font-family="Arial" font-size="16" font-weight="700" font-style="normal" 
 >Lab Group</text>
</g>

<g fill="#66fcf1" fill-opacity="1" stroke="#66fcf1" stroke-opacity="1" stroke-width="1" stroke-linecap="square" stroke-linejoin="bevel" transform="matrix(1,0,0,1,0,0)"
>
<text fill="#66fcf1" fill-opacity="1" stroke="none" xml:space="preserve" x="288.5" y="178" font-family="Arial" font-size="16" font-weight="700" font-style="normal" 
 >Timings</text>
</g>

<g fill="#66fcf1" fill-opacity="1" stroke="#66fcf1" stroke-opacity="1" stroke-width="1" stroke-linecap="square" stroke-linejoin="bevel" transform="matrix(1,0,0,1,0,0)"
>
<text fill="#66fcf1" fill-opacity="1" stroke="none" xml:space="preserve" x="405" y="178" font-family="Arial" font-size="16" font-weight="700" font-style="normal" 
 >    TA Name</text>
</g>

<g fill="#66fcf1" fill-opacity="1" stroke="#66fcf1" stroke-opacity="1" stroke-width="1" stroke-linecap="square" stroke-linejoin="bevel" transform="matrix(1,0,0,1,0,0)"
>
<text fill="#66fcf1" fill-opacity="1" stroke="none" xml:space="preserve" x="823.5" y="178" font-family="Arial" font-size="16" font-weight="700" font-style="normal" 
 >TA Email</text>
</g>

<g fill="#66fcf1" fill-opacity="1" stroke="#66fcf1" stroke-opacity="1" stroke-width="1" stroke-linecap="square" stroke-linejoin="bevel" transform="matrix(1,0,0,1,0,0)"
>
<text fill="#66fcf1" fill-opacity="1" stroke="none" xml:space="preserve" x="150" y="204" font-family="Arial" font-size="16" font-weight="400" font-style="normal" 
 >G21</text>
</g>

<g fill="#66fcf1" fill-opacity="1" stroke="#66fcf1" stroke-opacity="1" stroke-width="1" stroke-linecap="square" stroke-linejoin="bevel" transform="matrix(1,0,0,1,0,0)"
>
<text fill="#66fcf1" fill-opacity="1" stroke="none" xml:space="preserve" x="239" y="204" font-family="Arial" font-size="16" font-weight="400" font-style="normal" 
 >Wednesday(1pm-3pm)</text>
</g>

<g fill="#66fcf1" fill-opacity="1" stroke="#66fcf1" stroke-opacity="1" stroke-width="1" stroke-linecap="square" stroke-linejoin="bevel" transform="matrix(1,0,0,1,0,0)"
>
<text fill="#66fcf1" fill-opacity="1" stroke="none" xml:space="preserve" x="403" y="204" font-family="Arial" font-size="16" font-weight="400" font-style="normal" 
 >Naman Jain</text>
</g>

<g fill="#66fcf1" fill-opacity="1" stroke="#66fcf1" stroke-opacity="1" stroke-width="1" stroke-linecap="square" stroke-linejoin="bevel" transform="matrix(1,0,0,1,0,0)"
>
<text fill="#66fcf1" fill-opacity="1" stroke="none" xml:space="preserve" x="661" y="204" font-family="Arial" font-size="16" font-weight="400" font-style="normal" 
 >&lt;anz208848@iitd.ac.in&gt;</text>
</g>

<g fill="#66fcf1" fill-opacity="1" stroke="#66fcf1" stroke-opacity="1" stroke-width="1" stroke-linecap="square" stroke-linejoin="bevel" transform="matrix(1,0,0,1,0,0)"
>
<text fill="#66fcf1" fill-opacity="1" stroke="none" xml:space="preserve" x="150" y="227" font-family="Arial" font-size="16" font-weight="400" font-style="normal" 
 >G22</text>
</g>

<g fill="#66fcf1" fill-opacity="1" stroke="#66fcf1" stroke-opacity="1" stroke-width="1" stroke-linecap="square" stroke-linejoin="bevel" transform="matrix(1,0,0,1,0,0)"
>
<text fill="#66fcf1" fill-opacity="1" stroke="none" xml:space="preserve" x="239" y="227" font-family="Arial" font-size="16" font-weight="400" font-style="normal" 
 >Wednesday(1pm-3pm)</text>
</g>

<g fill="#66fcf1" fill-opacity="1" stroke="#66fcf1" stroke-opacity="1" stroke-width="1" stroke-linecap="square" stroke-linejoin="bevel" transform="matrix(1,0,0,1,0,0)"
>
<text fill="#66fcf1" fill-opacity="1" stroke="none" xml:space="preserve" x="403" y="227" font-family="Arial" font-size="16" font-weight="400" font-style="normal" 
 >Mohit Gupta</text>
</g>

<g fill="#66fcf1" fill-opacity="1" stroke="#66fcf1" stroke-opacity="1" stroke-width="1" stroke-linecap="square" stroke-linejoin="bevel" transform="matrix(1,0,0,1,0,0)"
>
<text fill="#66fcf1" fill-opacity="1" stroke="none" xml:space="preserve" x="661" y="227" font-family="Arial" font-size="16" font-weight="400" font-style="normal" 
 >&lt;cs5160433@iitd.ac.in&gt;</text>
</g>

<g fill="#66fcf1" fill-opacity="1" stroke="#66fcf1" stroke-opacity="1" stroke-width="1" stroke-linecap="square" stroke-linejoin="bevel" transform="matrix(1,0,0,1,0,0)"
>
<text fill="#66fcf1" fill-opacity="1" stroke="none" xml:space="preserve" x="150" y="250" font-family="Arial" font-size="16" font-weight="400" font-style="normal" 
 >G23</text>
</g>

<g fill="#66fcf1" fill-opacity="1" stroke="#66fcf1" stroke-opacity="1" stroke-width="1" stroke-linecap="square" stroke-linejoin="bevel" transform="matrix(1,0,0,1,0,0)"
>
<text fill="#66fcf1" fill-opacity="1" stroke="none" xml:space="preserve" x="239" y="250" font-family="Arial" font-size="16" font-weight="400" font-style="normal" 
 >Thrursday(1pm-3pm)</text>
</g>

<g fill="#66fcf1" fill-opacity="1" stroke="#66fcf1" stroke-opacity="1" stroke-width="1" stroke-linecap="square" stroke-linejoin="bevel" transform="matrix(1,0,0,1,0,0)"
>
<text fill="#66fcf1" fill-opacity="1" stroke="none" xml:space="preserve" x="403" y="250" font-family="Arial" font-size="16" font-weight="400" font-style="normal" 
 >Shivani Ashok Kumar Mehta</text>
</g>

<g fill="#66fcf1" fill-opacity="1" stroke="#66fcf1" stroke-opacity="1" stroke-width="1" stroke-linecap="square" stroke-linejoin="bevel" transform="matrix(1,0,0,1,0,0)"
>
<text fill="#66fcf1" fill-opacity="1" stroke="none" xml:space="preserve" x="661" y="250" font-family="Arial" font-size="16" font-weight="400" font-style="normal" 
 >&lt;anz208490@iitd.ac.in&gt;</text>
</g>

<g fill="#66fcf1" fill-opacity="1" stroke="#66fcf1" stroke-opacity="1" stroke-width="1" stroke-linecap="square" stroke-linejoin="bevel" transform="matrix(1,0,0,1,0,0)"
>
<text fill="#66fcf1" fill-opacity="1" stroke="none" xml:space="preserve" x="150" y="273" font-family="Arial" font-size="16" font-weight="400" font-style="normal" 
 >G24</text>
</g>

<g fill="#66fcf1" fill-opacity="1" stroke="#66fcf1" stroke-opacity="1" stroke-width="1" stroke-linecap="square" stroke-linejoin="bevel" transform="matrix(1,0,0,1,0,0)"
>
<text fill="#66fcf1" fill-opacity="1" stroke="none" xml:space="preserve" x="239" y="273" font-family="Arial" font-size="16" font-weight="400" font-style="normal" 
 >Thrursday(1pm-3pm)</text>
</g>

<g fill="#66fcf1" fill-opacity="1" stroke="#66fcf1" stroke-opacity="1" stroke-width="1" stroke-linecap="square" stroke-linejoin="bevel" transform="matrix(1,0,0,1,0,0)"
>
<text fill="#66fcf1" fill-opacity="1" stroke="none" xml:space="preserve" x="403" y="273" font-family="Arial" font-size="16" font-weight="400" font-style="normal" 
 >Ansh Sapra</text>
</g>

<g fill="#66fcf1" fill-opacity="1" stroke="#66fcf1" stroke-opacity="1" stroke-width="1" stroke-linecap="square" stroke-linejoin="bevel" transform="matrix(1,0,0,1,0,0)"
>
<text fill="#66fcf1" fill-opacity="1" stroke="none" xml:space="preserve" x="661" y="273" font-family="Arial" font-size="16" font-weight="400" font-style="normal" 
 >&lt;cs5160392@iitd.ac.in&gt;</text>
</g>

<g fill="#66fcf1" fill-opacity="1" stroke="#66fcf1" stroke-opacity="1" stroke-width="1" stroke-linecap="square" stroke-linejoin="bevel" transform="matrix(1,0,0,1,0,0)"
>
<text fill="#66fcf1" fill-opacity="1" stroke="none" xml:space="preserve" x="150" y="296" font-family="Arial" font-size="16" font-weight="400" font-style="normal" 
 >G25</text>
</g>

<g fill="#66fcf1" fill-opacity="1" stroke="#66fcf1" stroke-opacity="1" stroke-width="1" stroke-linecap="square" stroke-linejoin="bevel" transform="matrix(1,0,0,1,0,0)"
>
<text fill="#66fcf1" fill-opacity="1" stroke="none" xml:space="preserve" x="239" y="296" font-family="Arial" font-size="16" font-weight="400" font-style="normal" 
 >Friday(1pm-3pm)</text>
</g>

<g fill="#66fcf1" fill-opacity="1" stroke="#66fcf1" stroke-opacity="1" stroke-width="1" stroke-linecap="square" stroke-linejoin="bevel" transform="matrix(1,0,0,1,0,0)"
>
<text fill="#66fcf1" fill-opacity="1" stroke="none" xml:space="preserve" x="403" y="296" font-family="Arial" font-size="16" font-weight="400" font-style="normal" 
 >Rajat Singh</text>
</g>

<g fill="#66fcf1" fill-opacity="1" stroke="#66fcf1" stroke-opacity="1" stroke-width="1" stroke-linecap="square" stroke-linejoin="bevel" transform="matrix(1,0,0,1,0,0)"
>
<text fill="#66fcf1" fill-opacity="1" stroke="none" xml:space="preserve" x="661" y="296" font-family="Arial" font-size="16" font-weight="400" font-style="normal" 
 >&lt;csz208507@iitd.ac.in&gt;</text>
</g>

<g fill="#66fcf1" fill-opacity="1" stroke="#66fcf1" stroke-opacity="1" stroke-width="1" stroke-linecap="square" stroke-linejoin="bevel" transform="matrix(1,0,0,1,0,0)"
>
<text fill="#66fcf1" fill-opacity="1" stroke="none" xml:space="preserve" x="150" y="319" font-family="Arial" font-size="16" font-weight="400" font-style="normal" 
 >G26</text>
</g>

<g fill="#66fcf1" fill-opacity="1" stroke="#66fcf1" stroke-opacity="1" stroke-width="1" stroke-linecap="square" stroke-linejoin="bevel" transform="matrix(1,0,0,1,0,0)"
>
<text fill="#66fcf1" fill-opacity="1" stroke="none" xml:space="preserve" x="239" y="319" font-family="Arial" font-size="16" font-weight="400" font-style="normal" 
 >Friday(1pm-3pm)</text>
</g>

<g fill="#66fcf1" fill-opacity="1" stroke="#66fcf1" stroke-opacity="1" stroke-width="1" stroke-linecap="square" stroke-linejoin="bevel" transform="matrix(1,0,0,1,0,0)"
>
<text fill="#66fcf1" fill-opacity="1" stroke="none" xml:space="preserve" x="403" y="319" font-family="Arial" font-size="16" font-weight="400" font-style="normal" 
 >Ankit Kumar</text>
</g>

<g fill="#66fcf1" fill-opacity="1" stroke="#66fcf1" stroke-opacity="1" stroke-width="1" stroke-linecap="square" stroke-linejoin="bevel" transform="matrix(1,0,0,1,0,0)"
>
<text fill="#66fcf1" fill-opacity="1" stroke="none" xml:space="preserve" x="661" y="319" font-family="Arial" font-size="16" font-weight="400" font-style="normal" 
 >&lt;mt1170727@iitd.ac.in&gt;</text>
</g>

<g fill="#66fcf1" fill-opacity="1" stroke="#66fcf1" stroke-opacity="1" stroke-width="1" stroke-linecap="square" stroke-linejoin="bevel" transform="matrix(1,0,0,1,0,0)"
>
<text fill="#66fcf1" fill-opacity="1" stroke="none" xml:space="preserve" x="150" y="342" font-family="Arial" font-size="16" font-weight="400" font-style="normal" 
 >G27</text>
</g>

<g fill="#66fcf1" fill-opacity="1" stroke="#66fcf1" stroke-opacity="1" stroke-width="1" stroke-linecap="square" stroke-linejoin="bevel" transform="matrix(1,0,0,1,0,0)"
>
<text fill="#66fcf1" fill-opacity="1" stroke="none" xml:space="preserve" x="239" y="342" font-family="Arial" font-size="16" font-weight="400" font-style="normal" 
 >Monday(1pm-3pm)</text>
</g>

<g fill="#66fcf1" fill-opacity="1" stroke="#66fcf1" stroke-opacity="1" stroke-width="1" stroke-linecap="square" stroke-linejoin="bevel" transform="matrix(1,0,0,1,0,0)"
>
<text fill="#66fcf1" fill-opacity="1" stroke="none" xml:space="preserve" x="403" y="342" font-family="Arial" font-size="16" font-weight="400" font-style="normal" 
 >Aarushi Ranjan</text>
</g>

<g fill="#66fcf1" fill-opacity="1" stroke="#66fcf1" stroke-opacity="1" stroke-width="1" stroke-linecap="square" stroke-linejoin="bevel" transform="matrix(1,0,0,1,0,0)"
>
<text fill="#66fcf1" fill-opacity="1" stroke="none" xml:space="preserve" x="661" y="342" font-family="Arial" font-size="16" font-weight="400" font-style="normal" 
 >&lt;anz208846@iitd.ac.in&gt;</text>
</g>

<g fill="#66fcf1" fill-opacity="1" stroke="#66fcf1" stroke-opacity="1" stroke-width="1" stroke-linecap="square" stroke-linejoin="bevel" transform="matrix(1,0,0,1,0,0)"
>
<text fill="#66fcf1" fill-opacity="1" stroke="none" xml:space="preserve" x="150" y="365" font-family="Arial" font-size="16" font-weight="400" font-style="normal" 
 >G28</text>
</g>

<g fill="#66fcf1" fill-opacity="1" stroke="#66fcf1" stroke-opacity="1" stroke-width="1" stroke-linecap="square" stroke-linejoin="bevel" transform="matrix(1,0,0,1,0,0)"
>
<text fill="#66fcf1" fill-opacity="1" stroke="none" xml:space="preserve" x="239" y="365" font-family="Arial" font-size="16" font-weight="400" font-style="normal" 
 >Monday(1pm-3pm)</text>
</g>

<g fill="#66fcf1" fill-opacity="1" stroke="#66fcf1" stroke-opacity="1" stroke-width="1" stroke-linecap="square" stroke-linejoin="bevel" transform="matrix(1,0,0,1,0,0)"
>
<text fill="#66fcf1" fill-opacity="1" stroke="none" xml:space="preserve" x="403" y="365" font-family="Arial" font-size="16" font-weight="400" font-style="normal" 
 >Mohit Kumar Prajapat</text>
</g>

<g fill="#66fcf1" fill-opacity="1" stroke="#66fcf1" stroke-opacity="1" stroke-width="1" stroke-linecap="square" stroke-linejoin="bevel" transform="matrix(1,0,0,1,0,0)"
>
<text fill="#66fcf1" fill-opacity="1" stroke="none" xml:space="preserve" x="661" y="365" font-family="Arial" font-size="16" font-weight="400" font-style="normal" 
 >&lt;me1170591@iitd.ac.in&gt;</text>
</g>

<g fill="#66fcf1" fill-opacity="1" stroke="#66fcf1" stroke-opacity="1" stroke-width="1" stroke-linecap="square" stroke-linejoin="bevel" transform="matrix(1,0,0,1,0,0)"
>
<text fill="#66fcf1" fill-opacity="1" stroke="none" xml:space="preserve" x="150" y="388" font-family="Arial" font-size="16" font-weight="400" font-style="normal" 
 >G29</text>
</g>

<g fill="#66fcf1" fill-opacity="1" stroke="#66fcf1" stroke-opacity="1" stroke-width="1" stroke-linecap="square" stroke-linejoin="bevel" transform="matrix(1,0,0,1,0,0)"
>
<text fill="#66fcf1" fill-opacity="1" stroke="none" xml:space="preserve" x="239" y="388" font-family="Arial" font-size="16" font-weight="400" font-style="normal" 
 >Turesday(1pm-3pm)</text>
</g>

<g fill="#66fcf1" fill-opacity="1" stroke="#66fcf1" stroke-opacity="1" stroke-width="1" stroke-linecap="square" stroke-linejoin="bevel" transform="matrix(1,0,0,1,0,0)"
>
<text fill="#66fcf1" fill-opacity="1" stroke="none" xml:space="preserve" x="403" y="388" font-family="Arial" font-size="16" font-weight="400" font-style="normal" 
 >Soumen Basu</text>
</g>

<g fill="#66fcf1" fill-opacity="1" stroke="#66fcf1" stroke-opacity="1" stroke-width="1" stroke-linecap="square" stroke-linejoin="bevel" transform="matrix(1,0,0,1,0,0)"
>
<text fill="#66fcf1" fill-opacity="1" stroke="none" xml:space="preserve" x="661" y="388" font-family="Arial" font-size="16" font-weight="400" font-style="normal" 
 >&lt;soumen.basu@cse.iitd.ac.in&gt;</text>
</g>

<g fill="#66fcf1" fill-opacity="1" stroke="#66fcf1" stroke-opacity="1" stroke-width="1" stroke-linecap="square" stroke-linejoin="bevel" transform="matrix(1,0,0,1,0,0)"
>
<text fill="#66fcf1" fill-opacity="1" stroke="none" xml:space="preserve" x="150" y="411" font-family="Arial" font-size="16" font-weight="400" font-style="normal" 
 >G30</text>
</g>

<g fill="#66fcf1" fill-opacity="1" stroke="#66fcf1" stroke-opacity="1" stroke-width="1" stroke-linecap="square" stroke-linejoin="bevel" transform="matrix(1,0,0,1,0,0)"
>
<text fill="#66fcf1" fill-opacity="1" stroke="none" xml:space="preserve" x="239" y="411" font-family="Arial" font-size="16" font-weight="400" font-style="normal" 
 >Turesday(1pm-3pm)</text>
</g>

<g fill="#66fcf1" fill-opacity="1" stroke="#66fcf1" stroke-opacity="1" stroke-width="1" stroke-linecap="square" stroke-linejoin="bevel" transform="matrix(1,0,0,1,0,0)"
>
<text fill="#66fcf1" fill-opacity="1" stroke="none" xml:space="preserve" x="403" y="411" font-family="Arial" font-size="16" font-weight="400" font-style="normal" 
 >Saumya Gupta</text>
</g>

<g fill="#66fcf1" fill-opacity="1" stroke="#66fcf1" stroke-opacity="1" stroke-width="1" stroke-linecap="square" stroke-linejoin="bevel" transform="matrix(1,0,0,1,0,0)"
>
<text fill="#66fcf1" fill-opacity="1" stroke="none" xml:space="preserve" x="661" y="411" font-family="Arial" font-size="16" font-weight="400" font-style="normal" 
 >&lt;me1160689@iitd.ac.in&gt;</text>
</g>

<g fill="#66fcf1" fill-opacity="1" stroke="#66fcf1" stroke-opacity="1" stroke-width="1" stroke-linecap="square" stroke-linejoin="bevel" transform="matrix(1,0,0,1,0,0)"
>
<text fill="#66fcf1" fill-opacity="1" stroke="none" xml:space="preserve" x="150" y="434" font-family="Arial" font-size="16" font-weight="400" font-style="normal" 
 >G31</text>
</g>

<g fill="#66fcf1" fill-opacity="1" stroke="#66fcf1" stroke-opacity="1" stroke-width="1" stroke-linecap="square" stroke-linejoin="bevel" transform="matrix(1,0,0,1,0,0)"
>
<text fill="#66fcf1" fill-opacity="1" stroke="none" xml:space="preserve" x="239" y="434" font-family="Arial" font-size="16" font-weight="400" font-style="normal" 
 >Friday(1pm-3pm)</text>
</g>

<g fill="#66fcf1" fill-opacity="1" stroke="#66fcf1" stroke-opacity="1" stroke-width="1" stroke-linecap="square" stroke-linejoin="bevel" transform="matrix(1,0,0,1,0,0)"
>
<text fill="#66fcf1" fill-opacity="1" stroke="none" xml:space="preserve" x="403" y="434" font-family="Arial" font-size="16" font-weight="400" font-style="normal" 
 >Vivek Singh</text>
</g>

<g fill="#66fcf1" fill-opacity="1" stroke="#66fcf1" stroke-opacity="1" stroke-width="1" stroke-linecap="square" stroke-linejoin="bevel" transform="matrix(1,0,0,1,0,0)"
>
<text fill="#66fcf1" fill-opacity="1" stroke="none" xml:space="preserve" x="661" y="434" font-family="Arial" font-size="16" font-weight="400" font-style="normal" 
 >&lt;mcs192574@iitd.ac.in&gt;</text>
</g>

<g fill="#66fcf1" fill-opacity="1" stroke="#66fcf1" stroke-opacity="1" stroke-width="1" stroke-linecap="square" stroke-linejoin="bevel" transform="matrix(1,0,0,1,0,0)"
>
<text fill="#66fcf1" fill-opacity="1" stroke="none" xml:space="preserve" x="150" y="457" font-family="Arial" font-size="16" font-weight="400" font-style="normal" 
 >G32</text>
</g>

<g fill="#66fcf1" fill-opacity="1" stroke="#66fcf1" stroke-opacity="1" stroke-width="1" stroke-linecap="square" stroke-linejoin="bevel" transform="matrix(1,0,0,1,0,0)"
>
<text fill="#66fcf1" fill-opacity="1" stroke="none" xml:space="preserve" x="239" y="457" font-family="Arial" font-size="16" font-weight="400" font-style="normal" 
 >Friday(1pm-3pm)</text>
</g>

<g fill="#66fcf1" fill-opacity="1" stroke="#66fcf1" stroke-opacity="1" stroke-width="1" stroke-linecap="square" stroke-linejoin="bevel" transform="matrix(1,0,0,1,0,0)"
>
<text fill="#66fcf1" fill-opacity="1" stroke="none" xml:space="preserve" x="403" y="457" font-family="Arial" font-size="16" font-weight="400" font-style="normal" 
 >Meraj Ahmed</text>
</g>

<g fill="#66fcf1" fill-opacity="1" stroke="#66fcf1" stroke-opacity="1" stroke-width="1" stroke-linecap="square" stroke-linejoin="bevel" transform="matrix(1,0,0,1,0,0)"
>
<text fill="#66fcf1" fill-opacity="1" stroke="none" xml:space="preserve" x="661" y="457" font-family="Arial" font-size="16" font-weight="400" font-style="normal" 
 >&lt;mcs192565@iitd.ac.in&gt;</text>
</g>

<g fill="#66fcf1" fill-opacity="1" stroke="#66fcf1" stroke-opacity="1" stroke-width="1" stroke-linecap="square" stroke-linejoin="bevel" transform="matrix(1,0,0,1,0,0)"
>
<text fill="#66fcf1" fill-opacity="1" stroke="none" xml:space="preserve" x="150" y="480" font-family="Arial" font-size="16" font-weight="400" font-style="normal" 
 >G33</text>
</g>

<g fill="#66fcf1" fill-opacity="1" stroke="#66fcf1" stroke-opacity="1" stroke-width="1" stroke-linecap="square" stroke-linejoin="bevel" transform="matrix(1,0,0,1,0,0)"
>
<text fill="#66fcf1" fill-opacity="1" stroke="none" xml:space="preserve" x="239" y="480" font-family="Arial" font-size="16" font-weight="400" font-style="normal" 
 >Monday(1pm-3pm)</text>
</g>

<g fill="#66fcf1" fill-opacity="1" stroke="#66fcf1" stroke-opacity="1" stroke-width="1" stroke-linecap="square" stroke-linejoin="bevel" transform="matrix(1,0,0,1,0,0)"
>
<text fill="#66fcf1" fill-opacity="1" stroke="none" xml:space="preserve" x="403" y="480" font-family="Arial" font-size="16" font-weight="400" font-style="normal" 
 >Prakhar Agrawal</text>
</g>

<g fill="#66fcf1" fill-opacity="1" stroke="#66fcf1" stroke-opacity="1" stroke-width="1" stroke-linecap="square" stroke-linejoin="bevel" transform="matrix(1,0,0,1,0,0)"
>
<text fill="#66fcf1" fill-opacity="1" stroke="none" xml:space="preserve" x="661" y="480" font-family="Arial" font-size="16" font-weight="400" font-style="normal" 
 >&lt;cs5160387@iitd.ac.in&gt;</text>
</g>

<g fill="#66fcf1" fill-opacity="1" stroke="#66fcf1" stroke-opacity="1" stroke-width="1" stroke-linecap="square" stroke-linejoin="bevel" transform="matrix(1,0,0,1,0,0)"
>
<text fill="#66fcf1" fill-opacity="1" stroke="none" xml:space="preserve" x="150" y="503" font-family="Arial" font-size="16" font-weight="400" font-style="normal" 
 >G34</text>
</g>

<g fill="#66fcf1" fill-opacity="1" stroke="#66fcf1" stroke-opacity="1" stroke-width="1" stroke-linecap="square" stroke-linejoin="bevel" transform="matrix(1,0,0,1,0,0)"
>
<text fill="#66fcf1" fill-opacity="1" stroke="none" xml:space="preserve" x="239" y="503" font-family="Arial" font-size="16" font-weight="400" font-style="normal" 
 >Monday(1pm-3pm)</text>
</g>

<g fill="#66fcf1" fill-opacity="1" stroke="#66fcf1" stroke-opacity="1" stroke-width="1" stroke-linecap="square" stroke-linejoin="bevel" transform="matrix(1,0,0,1,0,0)"
>
<text fill="#66fcf1" fill-opacity="1" stroke="none" xml:space="preserve" x="403" y="503" font-family="Arial" font-size="16" font-weight="400" font-style="normal" 
 >Shivansh C Tripathi, Deepak Kunwar</text>
</g>

<g fill="#66fcf1" fill-opacity="1" stroke="#66fcf1" stroke-opacity="1" stroke-width="1" stroke-linecap="square" stroke-linejoin="bevel" transform="matrix(1,0,0,1,0,0)"
>
<text fill="#66fcf1" fill-opacity="1" stroke="none" xml:space="preserve" x="661" y="503" font-family="Arial" font-size="16" font-weight="400" font-style="normal" 
 >&lt;shivansh@cse.iitd.ac.in, mcs202455@cse.iitd.ac.in&gt;</text>
</g>

<g fill="#66fcf1" fill-opacity="1" stroke="#66fcf1" stroke-opacity="1" stroke-width="1" stroke-linecap="square" stroke-linejoin="bevel" transform="matrix(1,0,0,1,0,0)"
>
<text fill="#66fcf1" fill-opacity="1" stroke="none" xml:space="preserve" x="150" y="526" font-family="Arial" font-size="16" font-weight="400" font-style="normal" 
 >G35</text>
</g>

<g fill="#66fcf1" fill-opacity="1" stroke="#66fcf1" stroke-opacity="1" stroke-width="1" stroke-linecap="square" stroke-linejoin="bevel" transform="matrix(1,0,0,1,0,0)"
>
<text fill="#66fcf1" fill-opacity="1" stroke="none" xml:space="preserve" x="239" y="526" font-family="Arial" font-size="16" font-weight="400" font-style="normal" 
 >Turesday(1pm-3pm)</text>
</g>

<g fill="#66fcf1" fill-opacity="1" stroke="#66fcf1" stroke-opacity="1" stroke-width="1" stroke-linecap="square" stroke-linejoin="bevel" transform="matrix(1,0,0,1,0,0)"
>
<text fill="#66fcf1" fill-opacity="1" stroke="none" xml:space="preserve" x="403" y="526" font-family="Arial" font-size="16" font-weight="400" font-style="normal" 
 >Anant Gulgulia</text>
</g>

<g fill="#66fcf1" fill-opacity="1" stroke="#66fcf1" stroke-opacity="1" stroke-width="1" stroke-linecap="square" stroke-linejoin="bevel" transform="matrix(1,0,0,1,0,0)"
>
<text fill="#66fcf1" fill-opacity="1" stroke="none" xml:space="preserve" x="661" y="526" font-family="Arial" font-size="16" font-weight="400" font-style="normal" 
 >&lt;mcs192558@iitd.ac.in&gt;</text>
</g>

<g fill="#66fcf1" fill-opacity="1" stroke="#66fcf1" stroke-opacity="1" stroke-width="1" stroke-linecap="square" stroke-linejoin="bevel" transform="matrix(1,0,0,1,0,0)"
>
<text fill="#66fcf1" fill-opacity="1" stroke="none" xml:space="preserve" x="150" y="549" font-family="Arial" font-size="16" font-weight="400" font-style="normal" 
 >G36</text>
</g>

<g fill="#66fcf1" fill-opacity="1" stroke="#66fcf1" stroke-opacity="1" stroke-width="1" stroke-linecap="square" stroke-linejoin="bevel" transform="matrix(1,0,0,1,0,0)"
>
<text fill="#66fcf1" fill-opacity="1" stroke="none" xml:space="preserve" x="239" y="549" font-family="Arial" font-size="16" font-weight="400" font-style="normal" 
 >Turesday(1pm-3pm)</text>
</g>

<g fill="#66fcf1" fill-opacity="1" stroke="#66fcf1" stroke-opacity="1" stroke-width="1" stroke-linecap="square" stroke-linejoin="bevel" transform="matrix(1,0,0,1,0,0)"
>
<text fill="#66fcf1" fill-opacity="1" stroke="none" xml:space="preserve" x="403" y="549" font-family="Arial" font-size="16" font-weight="400" font-style="normal" 
 >Satyam Jay, Ashima Mittal</text>
</g>

<g fill="#66fcf1" fill-opacity="1" stroke="#66fcf1" stroke-opacity="1" stroke-width="1" stroke-linecap="square" stroke-linejoin="bevel" transform="matrix(1,0,0,1,0,0)"
>
<text fill="#66fcf1" fill-opacity="1" stroke="none" xml:space="preserve" x="661" y="549" font-family="Arial" font-size="16" font-weight="400" font-style="normal" 
 >&lt;mcs202468@cse.iitd.ac.in, anz208486@iitd.ac.in&gt;</text>
</g>

<g fill="#66fcf1" fill-opacity="1" stroke="#66fcf1" stroke-opacity="1" stroke-width="1" stroke-linecap="square" stroke-linejoin="bevel" transform="matrix(1,0,0,1,0,0)"
>
<text fill="#66fcf1" fill-opacity="1" stroke="none" xml:space="preserve" x="150" y="572" font-family="Arial" font-size="16" font-weight="400" font-style="normal" 
 >G37</text>
</g>

<g fill="#66fcf1" fill-opacity="1" stroke="#66fcf1" stroke-opacity="1" stroke-width="1" stroke-linecap="square" stroke-linejoin="bevel" transform="matrix(1,0,0,1,0,0)"
>
<text fill="#66fcf1" fill-opacity="1" stroke="none" xml:space="preserve" x="239" y="572" font-family="Arial" font-size="16" font-weight="400" font-style="normal" 
 >Wednesday(1pm-3pm)</text>
</g>

<g fill="#66fcf1" fill-opacity="1" stroke="#66fcf1" stroke-opacity="1" stroke-width="1" stroke-linecap="square" stroke-linejoin="bevel" transform="matrix(1,0,0,1,0,0)"
>
<text fill="#66fcf1" fill-opacity="1" stroke="none" xml:space="preserve" x="403" y="572" font-family="Arial" font-size="16" font-weight="400" font-style="normal" 
 >Priyadarshi Hitesh</text>
</g>

<g fill="#66fcf1" fill-opacity="1" stroke="#66fcf1" stroke-opacity="1" stroke-width="1" stroke-linecap="square" stroke-linejoin="bevel" transform="matrix(1,0,0,1,0,0)"
>
<text fill="#66fcf1" fill-opacity="1" stroke="none" xml:space="preserve" x="661" y="572" font-family="Arial" font-size="16" font-weight="400" font-style="normal" 
 >&lt;mcs192569@cse.iitd.ac.in&gt;</text>
</g>

<g fill="#66fcf1" fill-opacity="1" stroke="#66fcf1" stroke-opacity="1" stroke-width="1" stroke-linecap="square" stroke-linejoin="bevel" transform="matrix(1,0,0,1,0,0)"
>
<text fill="#66fcf1" fill-opacity="1" stroke="none" xml:space="preserve" x="150" y="595" font-family="Arial" font-size="16" font-weight="400" font-style="normal" 
 >G38</text>
</g>

<g fill="#66fcf1" fill-opacity="1" stroke="#66fcf1" stroke-opacity="1" stroke-width="1" stroke-linecap="square" stroke-linejoin="bevel" transform="matrix(1,0,0,1,0,0)"
>
<text fill="#66fcf1" fill-opacity="1" stroke="none" xml:space="preserve" x="239" y="595" font-family="Arial" font-size="16" font-weight="400" font-style="normal" 
 >Wednesday(1pm-3pm)</text>
</g>

<g fill="#66fcf1" fill-opacity="1" stroke="#66fcf1" stroke-opacity="1" stroke-width="1" stroke-linecap="square" stroke-linejoin="bevel" transform="matrix(1,0,0,1,0,0)"
>
<text fill="#66fcf1" fill-opacity="1" stroke="none" xml:space="preserve" x="403" y="595" font-family="Arial" font-size="16" font-weight="400" font-style="normal" 
 >Aman Shreshtha, Sai Kandregula</text>
</g>

<g fill="#66fcf1" fill-opacity="1" stroke="#66fcf1" stroke-opacity="1" stroke-width="1" stroke-linecap="square" stroke-linejoin="bevel" transform="matrix(1,0,0,1,0,0)"
>
<text fill="#66fcf1" fill-opacity="1" stroke="none" xml:space="preserve" x="661" y="595" font-family="Arial" font-size="16" font-weight="400" font-style="normal" 
 >&lt;csy207599@iitd.ac.in, csy207570@cse.iitd.ac.in&gt;</text>
</g>

<g fill="#66fcf1" fill-opacity="1" stroke="#66fcf1" stroke-opacity="1" stroke-width="1" stroke-linecap="square" stroke-linejoin="bevel" transform="matrix(1,0,0,1,0,0)"
>
<text fill="#66fcf1" fill-opacity="1" stroke="none" xml:space="preserve" x="150" y="618" font-family="Arial" font-size="16" font-weight="400" font-style="normal" 
 >G39</text>
</g>

<g fill="#66fcf1" fill-opacity="1" stroke="#66fcf1" stroke-opacity="1" stroke-width="1" stroke-linecap="square" stroke-linejoin="bevel" transform="matrix(1,0,0,1,0,0)"
>
<text fill="#66fcf1" fill-opacity="1" stroke="none" xml:space="preserve" x="239" y="618" font-family="Arial" font-size="16" font-weight="400" font-style="normal" 
 >Thrursday(1pm-3pm)</text>
</g>

<g fill="#66fcf1" fill-opacity="1" stroke="#66fcf1" stroke-opacity="1" stroke-width="1" stroke-linecap="square" stroke-linejoin="bevel" transform="matrix(1,0,0,1,0,0)"
>
<text fill="#66fcf1" fill-opacity="1" stroke="none" xml:space="preserve" x="403" y="618" font-family="Arial" font-size="16" font-weight="400" font-style="normal" 
 >Shayan</text>
</g>

<g fill="#66fcf1" fill-opacity="1" stroke="#66fcf1" stroke-opacity="1" stroke-width="1" stroke-linecap="square" stroke-linejoin="bevel" transform="matrix(1,0,0,1,0,0)"
>
<text fill="#66fcf1" fill-opacity="1" stroke="none" xml:space="preserve" x="661" y="618" font-family="Arial" font-size="16" font-weight="400" font-style="normal" 
 >&lt;cs1170375@iitd.ac.in&gt;</text>
</g>

<g fill="#66fcf1" fill-opacity="1" stroke="#66fcf1" stroke-opacity="1" stroke-width="1" stroke-linecap="square" stroke-linejoin="bevel" transform="matrix(1,0,0,1,0,0)"
>
<text fill="#66fcf1" fill-opacity="1" stroke="none" xml:space="preserve" x="150" y="641" font-family="Arial" font-size="16" font-weight="400" font-style="normal" 
 >G40</text>
</g>

<g fill="#66fcf1" fill-opacity="1" stroke="#66fcf1" stroke-opacity="1" stroke-width="1" stroke-linecap="square" stroke-linejoin="bevel" transform="matrix(1,0,0,1,0,0)"
>
<text fill="#66fcf1" fill-opacity="1" stroke="none" xml:space="preserve" x="239" y="641" font-family="Arial" font-size="16" font-weight="400" font-style="normal" 
 >Thrursday(1pm-3pm)</text>
</g>

<g fill="#66fcf1" fill-opacity="1" stroke="#66fcf1" stroke-opacity="1" stroke-width="1" stroke-linecap="square" stroke-linejoin="bevel" transform="matrix(1,0,0,1,0,0)"
>
<text fill="#66fcf1" fill-opacity="1" stroke="none" xml:space="preserve" x="403" y="641" font-family="Arial" font-size="16" font-weight="400" font-style="normal" 
 >Samidha Verma , Mayank Gupta</text>
</g>

<g fill="#66fcf1" fill-opacity="1" stroke="#66fcf1" stroke-opacity="1" stroke-width="1" stroke-linecap="square" stroke-linejoin="bevel" transform="matrix(1,0,0,1,0,0)"
>
<text fill="#66fcf1" fill-opacity="1" stroke="none" xml:space="preserve" x="661" y="641" font-family="Arial" font-size="16" font-weight="400" font-style="normal" 
 >&lt;csy207575@cse.iitd.ac.in , csy207571@cse.iitd.ac.in&gt;</text>
</g>

<g fill="#66fcf1" fill-opacity="1" stroke="#66fcf1" stroke-opacity="1" stroke-width="1" stroke-linecap="square" stroke-linejoin="bevel" transform="matrix(1,0,0,1,0,0)"
>
<text fill="#66fcf1" fill-opacity="1" stroke="none" xml:space="preserve" x="22" y="37" font-family="Arial" font-size="17" font-weight="400" font-style="normal" 
 >Home</text>
</g>

<g fill="#000000" fill-opacity="1" stroke="#000000" stroke-opacity="1" stroke-width="1" stroke-linecap="square" stroke-linejoin="bevel" transform="matrix(1,0,0,1,0,0)"
>
<text fill="#000000" fill-opacity="1" stroke="none" xml:space="preserve" x="78" y="37" font-family="Arial" font-size="16" font-weight="400" font-style="normal" 
 > </text>
</g>

<g fill="#1e90ff" fill-opacity="1" stroke="none" transform="matrix(1,0,0,1,0,0)"
>
<path vector-effect="none" fill-rule="evenodd" d="M87,8 L190,8 C192.761,8 195,10.2386 195,13 L195,51 C195,53.7614 192.761,56 190,56 L87,56 C84.2386,56 82,53.7614 82,51 L82,13 C82,10.2386 84.2386,8 87,8 "/>
</g>

<g fill="#ffffff" fill-opacity="1" stroke="#ffffff" stroke-opacity="1" stroke-width="1" stroke-linecap="square" stroke-linejoin="bevel" transform="matrix(1,0,0,1,0,0)"
>
<text fill="#ffffff" fill-opacity="1" stroke="none" xml:space="preserve" x="96" y="37" font-family="Arial" font-size="17" font-weight="400" font-style="normal" 
 >Lab Groups</text>
</g>

<g fill="#000000" fill-opacity="1" stroke="#000000" stroke-opacity="1" stroke-width="1" stroke-linecap="square" stroke-linejoin="bevel" transform="matrix(1,0,0,1,0,0)"
>
<text fill="#000000" fill-opacity="1" stroke="none" xml:space="preserve" x="195" y="37" font-family="Arial" font-size="16" font-weight="400" font-style="normal" 
 > </text>
</g>

<g fill="#66fcf1" fill-opacity="1" stroke="#66fcf1" stroke-opacity="1" stroke-width="1" stroke-linecap="square" stroke-linejoin="bevel" transform="matrix(1,0,0,1,0,0)"
>
<text fill="#66fcf1" fill-opacity="1" stroke="none" xml:space="preserve" x="213" y="37" font-family="Arial" font-size="17" font-weight="400" font-style="normal" 
 >Assignments</text>
</g>

<g fill="#000000" fill-opacity="1" stroke="#000000" stroke-opacity="1" stroke-width="1" stroke-linecap="square" stroke-linejoin="bevel" transform="matrix(1,0,0,1,0,0)"
>
<text fill="#000000" fill-opacity="1" stroke="none" xml:space="preserve" x="319" y="37" font-family="Arial" font-size="16" font-weight="400" font-style="normal" 
 > </text>
</g>

<g fill="#66fcf1" fill-opacity="1" stroke="#66fcf1" stroke-opacity="1" stroke-width="1" stroke-linecap="square" stroke-linejoin="bevel" transform="matrix(1,0,0,1,0,0)"
>
<text fill="#66fcf1" fill-opacity="1" stroke="none" xml:space="preserve" x="337" y="37" font-family="Arial" font-size="17" font-weight="400" font-style="normal" 
 >Lab Exams</text>
</g>

<g fill="#000000" fill-opacity="1" stroke="#000000" stroke-opacity="1" stroke-width="1" stroke-linecap="square" stroke-linejoin="bevel" transform="matrix(1,0,0,1,0,0)"
>
<text fill="#000000" fill-opacity="1" stroke="none" xml:space="preserve" x="431" y="37" font-family="Arial" font-size="16" font-weight="400" font-style="normal" 
 > </text>
</g>

<g fill="#66fcf1" fill-opacity="1" stroke="#66fcf1" stroke-opacity="1" stroke-width="1" stroke-linecap="square" stroke-linejoin="bevel" transform="matrix(1,0,0,1,0,0)"
>
<text fill="#66fcf1" fill-opacity="1" stroke="none" xml:space="preserve" x="449" y="37" font-family="Arial" font-size="17" font-weight="400" font-style="normal" 
 >Impartus</text>
</g>

<g fill="#13cefc" fill-opacity="1" stroke="#13cefc" stroke-opacity="1" stroke-width="1" stroke-linecap="square" stroke-linejoin="bevel" transform="matrix(1,0,0,1,0,0)"
>
<text fill="#13cefc" fill-opacity="1" stroke="none" xml:space="preserve" x="361" y="110" font-family="Arial" font-size="32" font-weight="700" font-style="normal" 
 >Lab Groups and TA information</text>
</g>

<g fill="#000000" fill-opacity="1" stroke="#000000" stroke-opacity="1" stroke-width="1" stroke-linecap="square" stroke-linejoin="miter" stroke-miterlimit="2" transform="matrix(1,0,0,1,0,0)"
>
</g>

<g fill="#000000" fill-opacity="1" stroke="#000000" stroke-opacity="1" stroke-width="1" stroke-linecap="square" stroke-linejoin="miter" stroke-miterlimit="2" transform="matrix(1,0,0,1,0,0)"
>
</g>

<g fill="#000000" fill-opacity="1" stroke="#000000" stroke-opacity="1" stroke-width="1" stroke-linecap="square" stroke-linejoin="miter" stroke-miterlimit="2" transform="matrix(1,0,0,1,0,0)"
>
</g>
</g>
</svg>
