<?xml version="1.0" encoding="UTF-8" standalone="no"?>
<svg width="317.5mm" height="103.188mm"
 xmlns="http://www.w3.org/2000/svg" xmlns:xlink="http://www.w3.org/1999/xlink"  version="1.2" baseProfile="tiny">
<desc>Created by HiQPdf</desc>
<defs>
</defs>
<g fill="none" stroke="black" stroke-width="1" fill-rule="evenodd" stroke-linecap="square" stroke-linejoin="bevel" >

<g fill="#000000" fill-opacity="1" stroke="#000000" stroke-opacity="1" stroke-width="1" stroke-linecap="square" stroke-linejoin="miter" stroke-miterlimit="2" transform="matrix(1,0,0,1,0,0)"
>
</g>

<g fill="#000000" fill-opacity="1" stroke="#000000" stroke-opacity="1" stroke-width="1" stroke-linecap="square" stroke-linejoin="miter" stroke-miterlimit="2" transform="matrix(1,0,0,1,0,0)"
>
</g>

<g fill="#000000" fill-opacity="1" stroke="#000000" stroke-opacity="1" stroke-width="1" stroke-linecap="square" stroke-linejoin="miter" stroke-miterlimit="2" transform="matrix(1,0,0,1,0,0)"
>
</g>

<g fill="#151515" fill-opacity="1" stroke="none" transform="matrix(1,0,0,1,0,0)"
>
<path vector-effect="none" fill-rule="evenodd" d="M0,0 L1200,0 L1200,390 L0,390 L0,0"/>
</g>

<g fill="#1f90fb" fill-opacity="1" stroke="none" transform="matrix(1,0,0,1,0,0)"
>
<path vector-effect="none" fill-rule="evenodd" d="M8,77 L1192,77 L1192,80 L8,80 L8,77"/>
</g>

<g fill="#1f90fb" fill-opacity="1" stroke="none" transform="matrix(1,0,0,1,0,0)"
>
<path vector-effect="none" fill-rule="evenodd" d="M8,118 L1192,118 L1192,119 L8,119 L8,118"/>
</g>

<g fill="#1f90fb" fill-opacity="1" stroke="none" transform="matrix(1,0,0,1,0,0)"
>
<path vector-effect="none" fill-rule="evenodd" d="M8,77 L11,77 L11,119 L8,119 L8,77"/>
</g>

<g fill="#1f90fb" fill-opacity="1" stroke="none" transform="matrix(1,0,0,1,0,0)"
>
<path vector-effect="none" fill-rule="evenodd" d="M1189,77 L1192,77 L1192,119 L1189,119 L1189,77"/>
</g>

<g fill="#1f90fb" fill-opacity="1" stroke="none" transform="matrix(1,0,0,1,0,0)"
>
<path vector-effect="none" fill-rule="evenodd" d="M427,141 L773,141 L773,143 L427,143 L427,141"/>
</g>

<g fill="#1f90fb" fill-opacity="1" stroke="none" transform="matrix(1,0,0,1,0,0)"
>
<path vector-effect="none" fill-rule="evenodd" d="M427,380 L773,380 L773,382 L427,382 L427,380"/>
</g>

<g fill="#1f90fb" fill-opacity="1" stroke="none" transform="matrix(1,0,0,1,0,0)"
>
<path vector-effect="none" fill-rule="evenodd" d="M427,141 L429,141 L429,382 L427,382 L427,141"/>
</g>

<g fill="#1f90fb" fill-opacity="1" stroke="none" transform="matrix(1,0,0,1,0,0)"
>
<path vector-effect="none" fill-rule="evenodd" d="M771,141 L773,141 L773,382 L771,382 L771,141"/>
</g>

<g fill="#1f90fb" fill-opacity="1" stroke="none" transform="matrix(1,0,0,1,0,0)"
>
<path vector-effect="none" fill-rule="evenodd" d="M431,145 L621,145 L621,147 L431,147 L431,145"/>
</g>

<g fill="#1f90fb" fill-opacity="1" stroke="none" transform="matrix(1,0,0,1,0,0)"
>
<path vector-effect="none" fill-rule="evenodd" d="M431,173 L621,173 L621,175 L431,175 L431,173"/>
</g>

<g fill="#1f90fb" fill-opacity="1" stroke="none" transform="matrix(1,0,0,1,0,0)"
>
<path vector-effect="none" fill-rule="evenodd" d="M431,145 L433,145 L433,175 L431,175 L431,145"/>
</g>

<g fill="#1f90fb" fill-opacity="1" stroke="none" transform="matrix(1,0,0,1,0,0)"
>
<path vector-effect="none" fill-rule="evenodd" d="M619,145 L621,145 L621,175 L619,175 L619,145"/>
</g>

<g fill="#1f90fb" fill-opacity="1" stroke="none" transform="matrix(1,0,0,1,0,0)"
>
<path vector-effect="none" fill-rule="evenodd" d="M623,145 L769,145 L769,147 L623,147 L623,145"/>
</g>

<g fill="#1f90fb" fill-opacity="1" stroke="none" transform="matrix(1,0,0,1,0,0)"
>
<path vector-effect="none" fill-rule="evenodd" d="M623,173 L769,173 L769,175 L623,175 L623,173"/>
</g>

<g fill="#1f90fb" fill-opacity="1" stroke="none" transform="matrix(1,0,0,1,0,0)"
>
<path vector-effect="none" fill-rule="evenodd" d="M623,145 L625,145 L625,175 L623,175 L623,145"/>
</g>

<g fill="#1f90fb" fill-opacity="1" stroke="none" transform="matrix(1,0,0,1,0,0)"
>
<path vector-effect="none" fill-rule="evenodd" d="M767,145 L769,145 L769,175 L767,175 L767,145"/>
</g>

<g fill="#1460a7" fill-opacity="1" stroke="none" transform="matrix(1,0,0,1,0,0)"
>
<path vector-effect="none" fill-rule="evenodd" d="M431,177 L621,177 L621,178 L431,178 L431,177"/>
</g>

<g fill="#1f90fb" fill-opacity="1" stroke="none" transform="matrix(1,0,0,1,0,0)"
>
<path vector-effect="none" fill-rule="evenodd" d="M431,203 L621,203 L621,204 L431,204 L431,203"/>
</g>

<g fill="#1460a7" fill-opacity="1" stroke="none" transform="matrix(1,0,0,1,0,0)"
>
<path vector-effect="none" fill-rule="evenodd" d="M431,177 L431,204 L432,203 L432,177 L431,177"/>
</g>

<g fill="#1f90fb" fill-opacity="1" stroke="none" transform="matrix(1,0,0,1,0,0)"
>
<path vector-effect="none" fill-rule="evenodd" d="M620,178 L620,204 L621,204 L621,177 L620,178"/>
</g>

<g fill="#1460a7" fill-opacity="1" stroke="none" transform="matrix(1,0,0,1,0,0)"
>
<path vector-effect="none" fill-rule="evenodd" d="M431,206 L621,206 L621,207 L431,207 L431,206"/>
</g>

<g fill="#1f90fb" fill-opacity="1" stroke="none" transform="matrix(1,0,0,1,0,0)"
>
<path vector-effect="none" fill-rule="evenodd" d="M431,232 L621,232 L621,233 L431,233 L431,232"/>
</g>

<g fill="#1460a7" fill-opacity="1" stroke="none" transform="matrix(1,0,0,1,0,0)"
>
<path vector-effect="none" fill-rule="evenodd" d="M431,206 L431,233 L432,232 L432,206 L431,206"/>
</g>

<g fill="#1f90fb" fill-opacity="1" stroke="none" transform="matrix(1,0,0,1,0,0)"
>
<path vector-effect="none" fill-rule="evenodd" d="M620,207 L620,233 L621,233 L621,206 L620,207"/>
</g>

<g fill="#1460a7" fill-opacity="1" stroke="none" transform="matrix(1,0,0,1,0,0)"
>
<path vector-effect="none" fill-rule="evenodd" d="M623,206 L769,206 L769,207 L623,207 L623,206"/>
</g>

<g fill="#1f90fb" fill-opacity="1" stroke="none" transform="matrix(1,0,0,1,0,0)"
>
<path vector-effect="none" fill-rule="evenodd" d="M623,232 L769,232 L769,233 L623,233 L623,232"/>
</g>

<g fill="#1460a7" fill-opacity="1" stroke="none" transform="matrix(1,0,0,1,0,0)"
>
<path vector-effect="none" fill-rule="evenodd" d="M623,206 L623,233 L624,232 L624,206 L623,206"/>
</g>

<g fill="#1f90fb" fill-opacity="1" stroke="none" transform="matrix(1,0,0,1,0,0)"
>
<path vector-effect="none" fill-rule="evenodd" d="M768,207 L768,233 L769,233 L769,206 L768,207"/>
</g>

<g fill="#1460a7" fill-opacity="1" stroke="none" transform="matrix(1,0,0,1,0,0)"
>
<path vector-effect="none" fill-rule="evenodd" d="M431,235 L621,235 L621,236 L431,236 L431,235"/>
</g>

<g fill="#1f90fb" fill-opacity="1" stroke="none" transform="matrix(1,0,0,1,0,0)"
>
<path vector-effect="none" fill-rule="evenodd" d="M431,261 L621,261 L621,262 L431,262 L431,261"/>
</g>

<g fill="#1460a7" fill-opacity="1" stroke="none" transform="matrix(1,0,0,1,0,0)"
>
<path vector-effect="none" fill-rule="evenodd" d="M431,235 L431,262 L432,261 L432,235 L431,235"/>
</g>

<g fill="#1f90fb" fill-opacity="1" stroke="none" transform="matrix(1,0,0,1,0,0)"
>
<path vector-effect="none" fill-rule="evenodd" d="M620,236 L620,262 L621,262 L621,235 L620,236"/>
</g>

<g fill="#1460a7" fill-opacity="1" stroke="none" transform="matrix(1,0,0,1,0,0)"
>
<path vector-effect="none" fill-rule="evenodd" d="M623,235 L769,235 L769,236 L623,236 L623,235"/>
</g>

<g fill="#1f90fb" fill-opacity="1" stroke="none" transform="matrix(1,0,0,1,0,0)"
>
<path vector-effect="none" fill-rule="evenodd" d="M623,261 L769,261 L769,262 L623,262 L623,261"/>
</g>

<g fill="#1460a7" fill-opacity="1" stroke="none" transform="matrix(1,0,0,1,0,0)"
>
<path vector-effect="none" fill-rule="evenodd" d="M623,235 L623,262 L624,261 L624,235 L623,235"/>
</g>

<g fill="#1f90fb" fill-opacity="1" stroke="none" transform="matrix(1,0,0,1,0,0)"
>
<path vector-effect="none" fill-rule="evenodd" d="M768,236 L768,262 L769,262 L769,235 L768,236"/>
</g>

<g fill="#1460a7" fill-opacity="1" stroke="none" transform="matrix(1,0,0,1,0,0)"
>
<path vector-effect="none" fill-rule="evenodd" d="M431,264 L621,264 L621,265 L431,265 L431,264"/>
</g>

<g fill="#1f90fb" fill-opacity="1" stroke="none" transform="matrix(1,0,0,1,0,0)"
>
<path vector-effect="none" fill-rule="evenodd" d="M431,290 L621,290 L621,291 L431,291 L431,290"/>
</g>

<g fill="#1460a7" fill-opacity="1" stroke="none" transform="matrix(1,0,0,1,0,0)"
>
<path vector-effect="none" fill-rule="evenodd" d="M431,264 L431,291 L432,290 L432,264 L431,264"/>
</g>

<g fill="#1f90fb" fill-opacity="1" stroke="none" transform="matrix(1,0,0,1,0,0)"
>
<path vector-effect="none" fill-rule="evenodd" d="M620,265 L620,291 L621,291 L621,264 L620,265"/>
</g>

<g fill="#1460a7" fill-opacity="1" stroke="none" transform="matrix(1,0,0,1,0,0)"
>
<path vector-effect="none" fill-rule="evenodd" d="M623,264 L769,264 L769,265 L623,265 L623,264"/>
</g>

<g fill="#1f90fb" fill-opacity="1" stroke="none" transform="matrix(1,0,0,1,0,0)"
>
<path vector-effect="none" fill-rule="evenodd" d="M623,290 L769,290 L769,291 L623,291 L623,290"/>
</g>

<g fill="#1460a7" fill-opacity="1" stroke="none" transform="matrix(1,0,0,1,0,0)"
>
<path vector-effect="none" fill-rule="evenodd" d="M623,264 L623,291 L624,290 L624,264 L623,264"/>
</g>

<g fill="#1f90fb" fill-opacity="1" stroke="none" transform="matrix(1,0,0,1,0,0)"
>
<path vector-effect="none" fill-rule="evenodd" d="M768,265 L768,291 L769,291 L769,264 L768,265"/>
</g>

<g fill="#1460a7" fill-opacity="1" stroke="none" transform="matrix(1,0,0,1,0,0)"
>
<path vector-effect="none" fill-rule="evenodd" d="M431,293 L621,293 L621,294 L431,294 L431,293"/>
</g>

<g fill="#1f90fb" fill-opacity="1" stroke="none" transform="matrix(1,0,0,1,0,0)"
>
<path vector-effect="none" fill-rule="evenodd" d="M431,319 L621,319 L621,320 L431,320 L431,319"/>
</g>

<g fill="#1460a7" fill-opacity="1" stroke="none" transform="matrix(1,0,0,1,0,0)"
>
<path vector-effect="none" fill-rule="evenodd" d="M431,293 L431,320 L432,319 L432,293 L431,293"/>
</g>

<g fill="#1f90fb" fill-opacity="1" stroke="none" transform="matrix(1,0,0,1,0,0)"
>
<path vector-effect="none" fill-rule="evenodd" d="M620,294 L620,320 L621,320 L621,293 L620,294"/>
</g>

<g fill="#1460a7" fill-opacity="1" stroke="none" transform="matrix(1,0,0,1,0,0)"
>
<path vector-effect="none" fill-rule="evenodd" d="M623,293 L769,293 L769,294 L623,294 L623,293"/>
</g>

<g fill="#1f90fb" fill-opacity="1" stroke="none" transform="matrix(1,0,0,1,0,0)"
>
<path vector-effect="none" fill-rule="evenodd" d="M623,319 L769,319 L769,320 L623,320 L623,319"/>
</g>

<g fill="#1460a7" fill-opacity="1" stroke="none" transform="matrix(1,0,0,1,0,0)"
>
<path vector-effect="none" fill-rule="evenodd" d="M623,293 L623,320 L624,319 L624,293 L623,293"/>
</g>

<g fill="#1f90fb" fill-opacity="1" stroke="none" transform="matrix(1,0,0,1,0,0)"
>
<path vector-effect="none" fill-rule="evenodd" d="M768,294 L768,320 L769,320 L769,293 L768,294"/>
</g>

<g fill="#1460a7" fill-opacity="1" stroke="none" transform="matrix(1,0,0,1,0,0)"
>
<path vector-effect="none" fill-rule="evenodd" d="M431,322 L621,322 L621,323 L431,323 L431,322"/>
</g>

<g fill="#1f90fb" fill-opacity="1" stroke="none" transform="matrix(1,0,0,1,0,0)"
>
<path vector-effect="none" fill-rule="evenodd" d="M431,348 L621,348 L621,349 L431,349 L431,348"/>
</g>

<g fill="#1460a7" fill-opacity="1" stroke="none" transform="matrix(1,0,0,1,0,0)"
>
<path vector-effect="none" fill-rule="evenodd" d="M431,322 L431,349 L432,348 L432,322 L431,322"/>
</g>

<g fill="#1f90fb" fill-opacity="1" stroke="none" transform="matrix(1,0,0,1,0,0)"
>
<path vector-effect="none" fill-rule="evenodd" d="M620,323 L620,349 L621,349 L621,322 L620,323"/>
</g>

<g fill="#1460a7" fill-opacity="1" stroke="none" transform="matrix(1,0,0,1,0,0)"
>
<path vector-effect="none" fill-rule="evenodd" d="M431,351 L621,351 L621,352 L431,352 L431,351"/>
</g>

<g fill="#1f90fb" fill-opacity="1" stroke="none" transform="matrix(1,0,0,1,0,0)"
>
<path vector-effect="none" fill-rule="evenodd" d="M431,377 L621,377 L621,378 L431,378 L431,377"/>
</g>

<g fill="#1460a7" fill-opacity="1" stroke="none" transform="matrix(1,0,0,1,0,0)"
>
<path vector-effect="none" fill-rule="evenodd" d="M431,351 L431,378 L432,377 L432,351 L431,351"/>
</g>

<g fill="#1f90fb" fill-opacity="1" stroke="none" transform="matrix(1,0,0,1,0,0)"
>
<path vector-effect="none" fill-rule="evenodd" d="M620,352 L620,378 L621,378 L621,351 L620,352"/>
</g>

<g fill="#66fcf1" fill-opacity="1" stroke="#66fcf1" stroke-opacity="1" stroke-width="1" stroke-linecap="square" stroke-linejoin="bevel" transform="matrix(1,0,0,1,0,0)"
>
<text fill="#66fcf1" fill-opacity="1" stroke="none" xml:space="preserve" x="22" y="37" font-family="Arial" font-size="17" font-weight="400" font-style="normal" 
 >Home</text>
</g>

<g fill="#000000" fill-opacity="1" stroke="#000000" stroke-opacity="1" stroke-width="1" stroke-linecap="square" stroke-linejoin="bevel" transform="matrix(1,0,0,1,0,0)"
>
<text fill="#000000" fill-opacity="1" stroke="none" xml:space="preserve" x="78" y="37" font-family="Arial" font-size="16" font-weight="400" font-style="normal" 
 > </text>
</g>

<g fill="#66fcf1" fill-opacity="1" stroke="#66fcf1" stroke-opacity="1" stroke-width="1" stroke-linecap="square" stroke-linejoin="bevel" transform="matrix(1,0,0,1,0,0)"
>
<text fill="#66fcf1" fill-opacity="1" stroke="none" xml:space="preserve" x="96" y="37" font-family="Arial" font-size="17" font-weight="400" font-style="normal" 
 >Lab Groups</text>
</g>

<g fill="#000000" fill-opacity="1" stroke="#000000" stroke-opacity="1" stroke-width="1" stroke-linecap="square" stroke-linejoin="bevel" transform="matrix(1,0,0,1,0,0)"
>
<text fill="#000000" fill-opacity="1" stroke="none" xml:space="preserve" x="195" y="37" font-family="Arial" font-size="16" font-weight="400" font-style="normal" 
 > </text>
</g>

<g fill="#1e90ff" fill-opacity="1" stroke="none" transform="matrix(1,0,0,1,0,0)"
>
<path vector-effect="none" fill-rule="evenodd" d="M204,8 L314,8 C316.761,8 319,10.2386 319,13 L319,51 C319,53.7614 316.761,56 314,56 L204,56 C201.239,56 199,53.7614 199,51 L199,13 C199,10.2386 201.239,8 204,8 "/>
</g>

<g fill="#ffffff" fill-opacity="1" stroke="#ffffff" stroke-opacity="1" stroke-width="1" stroke-linecap="square" stroke-linejoin="bevel" transform="matrix(1,0,0,1,0,0)"
>
<text fill="#ffffff" fill-opacity="1" stroke="none" xml:space="preserve" x="213" y="37" font-family="Arial" font-size="17" font-weight="400" font-style="normal" 
 >Assignments</text>
</g>

<g fill="#000000" fill-opacity="1" stroke="#000000" stroke-opacity="1" stroke-width="1" stroke-linecap="square" stroke-linejoin="bevel" transform="matrix(1,0,0,1,0,0)"
>
<text fill="#000000" fill-opacity="1" stroke="none" xml:space="preserve" x="319" y="37" font-family="Arial" font-size="16" font-weight="400" font-style="normal" 
 > </text>
</g>

<g fill="#66fcf1" fill-opacity="1" stroke="#66fcf1" stroke-opacity="1" stroke-width="1" stroke-linecap="square" stroke-linejoin="bevel" transform="matrix(1,0,0,1,0,0)"
>
<text fill="#66fcf1" fill-opacity="1" stroke="none" xml:space="preserve" x="337" y="37" font-family="Arial" font-size="17" font-weight="400" font-style="normal" 
 >Lab Exams</text>
</g>

<g fill="#000000" fill-opacity="1" stroke="#000000" stroke-opacity="1" stroke-width="1" stroke-linecap="square" stroke-linejoin="bevel" transform="matrix(1,0,0,1,0,0)"
>
<text fill="#000000" fill-opacity="1" stroke="none" xml:space="preserve" x="431" y="37" font-family="Arial" font-size="16" font-weight="400" font-style="normal" 
 > </text>
</g>

<g fill="#66fcf1" fill-opacity="1" stroke="#66fcf1" stroke-opacity="1" stroke-width="1" stroke-linecap="square" stroke-linejoin="bevel" transform="matrix(1,0,0,1,0,0)"
>
<text fill="#66fcf1" fill-opacity="1" stroke="none" xml:space="preserve" x="449" y="37" font-family="Arial" font-size="17" font-weight="400" font-style="normal" 
 >Impartus</text>
</g>

<g fill="#13cefc" fill-opacity="1" stroke="#13cefc" stroke-opacity="1" stroke-width="1" stroke-linecap="square" stroke-linejoin="bevel" transform="matrix(1,0,0,1,0,0)"
>
<text fill="#13cefc" fill-opacity="1" stroke="none" xml:space="preserve" x="499.5" y="110" font-family="Arial" font-size="32" font-weight="700" font-style="normal" 
 >Assignments</text>
</g>

<g fill="#13cefc" fill-opacity="1" stroke="#13cefc" stroke-opacity="1" stroke-width="1" stroke-linecap="square" stroke-linejoin="bevel" transform="matrix(1,0,0,1,0,0)"
>
<text fill="#13cefc" fill-opacity="1" stroke="none" xml:space="preserve" x="480.5" y="165" font-family="Arial" font-size="16" font-weight="700" font-style="normal" 
 >Assignment</text>
</g>

<g fill="#13cefc" fill-opacity="1" stroke="#13cefc" stroke-opacity="1" stroke-width="1" stroke-linecap="square" stroke-linejoin="bevel" transform="matrix(1,0,0,1,0,0)"
>
<text fill="#13cefc" fill-opacity="1" stroke="none" xml:space="preserve" x="659.5" y="165" font-family="Arial" font-size="16" font-weight="700" font-style="normal" 
 >Solutions</text>
</g>

<g fill="#1177fd" fill-opacity="1" stroke="#1177fd" stroke-opacity="1" stroke-width="1" stroke-linecap="square" stroke-linejoin="bevel" transform="matrix(1,0,0,1,0,0)"
>
<text fill="#1177fd" fill-opacity="1" stroke="none" xml:space="preserve" x="435" y="196" font-family="Arial" font-size="16" font-weight="400" font-style="normal" 
 >Assignment 0</text>
</g>

<g fill="#1177fd" fill-opacity="1" stroke="#1177fd" stroke-opacity="1" stroke-width="1" stroke-linecap="square" stroke-linejoin="miter" stroke-miterlimit="2" transform="matrix(1,0,0,1,0,0)"
>
<polyline fill="none" vector-effect="none" points="435,197.5 529,197.5 " />
</g>

<g fill="#13cefc" fill-opacity="1" stroke="#13cefc" stroke-opacity="1" stroke-width="1" stroke-linecap="square" stroke-linejoin="bevel" transform="matrix(1,0,0,1,0,0)"
>
<text fill="#13cefc" fill-opacity="1" stroke="none" xml:space="preserve" x="530" y="196" font-family="Arial" font-size="16" font-weight="400" font-style="normal" 
 > , </text>
</g>

<g fill="#1177fd" fill-opacity="1" stroke="#1177fd" stroke-opacity="1" stroke-width="1" stroke-linecap="square" stroke-linejoin="bevel" transform="matrix(1,0,0,1,0,0)"
>
<text fill="#1177fd" fill-opacity="1" stroke="none" xml:space="preserve" x="542" y="196" font-family="Arial" font-size="16" font-weight="400" font-style="normal" 
 >VPN setup</text>
</g>

<g fill="#1177fd" fill-opacity="1" stroke="#1177fd" stroke-opacity="1" stroke-width="1" stroke-linecap="square" stroke-linejoin="miter" stroke-miterlimit="2" transform="matrix(1,0,0,1,0,0)"
>
<polyline fill="none" vector-effect="none" points="542,197.5 616,197.5 " />
</g>

<g fill="#1177fd" fill-opacity="1" stroke="#1177fd" stroke-opacity="1" stroke-width="1" stroke-linecap="square" stroke-linejoin="bevel" transform="matrix(1,0,0,1,0,0)"
>
<text fill="#1177fd" fill-opacity="1" stroke="none" xml:space="preserve" x="435" y="225" font-family="Arial" font-size="16" font-weight="400" font-style="normal" 
 >Assignment 1</text>
</g>

<g fill="#1177fd" fill-opacity="1" stroke="#1177fd" stroke-opacity="1" stroke-width="1" stroke-linecap="square" stroke-linejoin="miter" stroke-miterlimit="2" transform="matrix(1,0,0,1,0,0)"
>
<polyline fill="none" vector-effect="none" points="435,226.5 529,226.5 " />
</g>

<g fill="#1177fd" fill-opacity="1" stroke="#1177fd" stroke-opacity="1" stroke-width="1" stroke-linecap="square" stroke-linejoin="bevel" transform="matrix(1,0,0,1,0,0)"
>
<text fill="#1177fd" fill-opacity="1" stroke="none" xml:space="preserve" x="627" y="225" font-family="Arial" font-size="16" font-weight="400" font-style="normal" 
 >Download Solutions</text>
</g>

<g fill="#1177fd" fill-opacity="1" stroke="#1177fd" stroke-opacity="1" stroke-width="1" stroke-linecap="square" stroke-linejoin="miter" stroke-miterlimit="2" transform="matrix(1,0,0,1,0,0)"
>
<polyline fill="none" vector-effect="none" points="627,226.5 764,226.5 " />
</g>

<g fill="#1177fd" fill-opacity="1" stroke="#1177fd" stroke-opacity="1" stroke-width="1" stroke-linecap="square" stroke-linejoin="bevel" transform="matrix(1,0,0,1,0,0)"
>
<text fill="#1177fd" fill-opacity="1" stroke="none" xml:space="preserve" x="435" y="254" font-family="Arial" font-size="16" font-weight="400" font-style="normal" 
 >Assignment 2</text>
</g>

<g fill="#1177fd" fill-opacity="1" stroke="#1177fd" stroke-opacity="1" stroke-width="1" stroke-linecap="square" stroke-linejoin="miter" stroke-miterlimit="2" transform="matrix(1,0,0,1,0,0)"
>
<polyline fill="none" vector-effect="none" points="435,255.5 529,255.5 " />
</g>

<g fill="#1177fd" fill-opacity="1" stroke="#1177fd" stroke-opacity="1" stroke-width="1" stroke-linecap="square" stroke-linejoin="bevel" transform="matrix(1,0,0,1,0,0)"
>
<text fill="#1177fd" fill-opacity="1" stroke="none" xml:space="preserve" x="627" y="254" font-family="Arial" font-size="16" font-weight="400" font-style="normal" 
 >Download Solutions</text>
</g>

<g fill="#1177fd" fill-opacity="1" stroke="#1177fd" stroke-opacity="1" stroke-width="1" stroke-linecap="square" stroke-linejoin="miter" stroke-miterlimit="2" transform="matrix(1,0,0,1,0,0)"
>
<polyline fill="none" vector-effect="none" points="627,255.5 764,255.5 " />
</g>

<g fill="#1177fd" fill-opacity="1" stroke="#1177fd" stroke-opacity="1" stroke-width="1" stroke-linecap="square" stroke-linejoin="bevel" transform="matrix(1,0,0,1,0,0)"
>
<text fill="#1177fd" fill-opacity="1" stroke="none" xml:space="preserve" x="435" y="283" font-family="Arial" font-size="16" font-weight="400" font-style="normal" 
 >Assignment 3</text>
</g>

<g fill="#1177fd" fill-opacity="1" stroke="#1177fd" stroke-opacity="1" stroke-width="1" stroke-linecap="square" stroke-linejoin="miter" stroke-miterlimit="2" transform="matrix(1,0,0,1,0,0)"
>
<polyline fill="none" vector-effect="none" points="435,284.5 529,284.5 " />
</g>

<g fill="#1177fd" fill-opacity="1" stroke="#1177fd" stroke-opacity="1" stroke-width="1" stroke-linecap="square" stroke-linejoin="bevel" transform="matrix(1,0,0,1,0,0)"
>
<text fill="#1177fd" fill-opacity="1" stroke="none" xml:space="preserve" x="627" y="283" font-family="Arial" font-size="16" font-weight="400" font-style="normal" 
 >Download Solutions</text>
</g>

<g fill="#1177fd" fill-opacity="1" stroke="#1177fd" stroke-opacity="1" stroke-width="1" stroke-linecap="square" stroke-linejoin="miter" stroke-miterlimit="2" transform="matrix(1,0,0,1,0,0)"
>
<polyline fill="none" vector-effect="none" points="627,284.5 764,284.5 " />
</g>

<g fill="#1177fd" fill-opacity="1" stroke="#1177fd" stroke-opacity="1" stroke-width="1" stroke-linecap="square" stroke-linejoin="bevel" transform="matrix(1,0,0,1,0,0)"
>
<text fill="#1177fd" fill-opacity="1" stroke="none" xml:space="preserve" x="435" y="312" font-family="Arial" font-size="16" font-weight="400" font-style="normal" 
 >Assignment 4</text>
</g>

<g fill="#1177fd" fill-opacity="1" stroke="#1177fd" stroke-opacity="1" stroke-width="1" stroke-linecap="square" stroke-linejoin="miter" stroke-miterlimit="2" transform="matrix(1,0,0,1,0,0)"
>
<polyline fill="none" vector-effect="none" points="435,313.5 529,313.5 " />
</g>

<g fill="#1177fd" fill-opacity="1" stroke="#1177fd" stroke-opacity="1" stroke-width="1" stroke-linecap="square" stroke-linejoin="bevel" transform="matrix(1,0,0,1,0,0)"
>
<text fill="#1177fd" fill-opacity="1" stroke="none" xml:space="preserve" x="627" y="312" font-family="Arial" font-size="16" font-weight="400" font-style="normal" 
 >Download Solutions</text>
</g>

<g fill="#1177fd" fill-opacity="1" stroke="#1177fd" stroke-opacity="1" stroke-width="1" stroke-linecap="square" stroke-linejoin="miter" stroke-miterlimit="2" transform="matrix(1,0,0,1,0,0)"
>
<polyline fill="none" vector-effect="none" points="627,313.5 764,313.5 " />
</g>

<g fill="#1177fd" fill-opacity="1" stroke="#1177fd" stroke-opacity="1" stroke-width="1" stroke-linecap="square" stroke-linejoin="bevel" transform="matrix(1,0,0,1,0,0)"
>
<text fill="#1177fd" fill-opacity="1" stroke="none" xml:space="preserve" x="435" y="341" font-family="Arial" font-size="16" font-weight="400" font-style="normal" 
 >Assignment 5</text>
</g>

<g fill="#1177fd" fill-opacity="1" stroke="#1177fd" stroke-opacity="1" stroke-width="1" stroke-linecap="square" stroke-linejoin="miter" stroke-miterlimit="2" transform="matrix(1,0,0,1,0,0)"
>
<polyline fill="none" vector-effect="none" points="435,342.5 529,342.5 " />
</g>

<g fill="#1177fd" fill-opacity="1" stroke="#1177fd" stroke-opacity="1" stroke-width="1" stroke-linecap="square" stroke-linejoin="bevel" transform="matrix(1,0,0,1,0,0)"
>
<text fill="#1177fd" fill-opacity="1" stroke="none" xml:space="preserve" x="435" y="370" font-family="Arial" font-size="16" font-weight="400" font-style="normal" 
 >Assignment 6</text>
</g>

<g fill="#1177fd" fill-opacity="1" stroke="#1177fd" stroke-opacity="1" stroke-width="1" stroke-linecap="square" stroke-linejoin="miter" stroke-miterlimit="2" transform="matrix(1,0,0,1,0,0)"
>
<polyline fill="none" vector-effect="none" points="435,371.5 529,371.5 " />
</g>

<g fill="#000000" fill-opacity="1" stroke="#000000" stroke-opacity="1" stroke-width="1" stroke-linecap="square" stroke-linejoin="miter" stroke-miterlimit="2" transform="matrix(1,0,0,1,0,0)"
>
</g>

<g fill="#000000" fill-opacity="1" stroke="#000000" stroke-opacity="1" stroke-width="1" stroke-linecap="square" stroke-linejoin="miter" stroke-miterlimit="2" transform="matrix(1,0,0,1,0,0)"
>
</g>

<g fill="#000000" fill-opacity="1" stroke="#000000" stroke-opacity="1" stroke-width="1" stroke-linecap="square" stroke-linejoin="miter" stroke-miterlimit="2" transform="matrix(1,0,0,1,0,0)"
>
</g>
</g>
</svg>
