<?xml version="1.0" encoding="UTF-8" standalone="no"?>
<svg width="317.5mm" height="64.2938mm"
 xmlns="http://www.w3.org/2000/svg" xmlns:xlink="http://www.w3.org/1999/xlink"  version="1.2" baseProfile="tiny">
<desc>Created by HiQPdf</desc>
<defs>
</defs>
<g fill="none" stroke="black" stroke-width="1" fill-rule="evenodd" stroke-linecap="square" stroke-linejoin="bevel" >

<g fill="#000000" fill-opacity="1" stroke="#000000" stroke-opacity="1" stroke-width="1" stroke-linecap="square" stroke-linejoin="miter" stroke-miterlimit="2" transform="matrix(1,0,0,1,0,0)"
>
</g>

<g fill="#000000" fill-opacity="1" stroke="#000000" stroke-opacity="1" stroke-width="1" stroke-linecap="square" stroke-linejoin="miter" stroke-miterlimit="2" transform="matrix(1,0,0,1,0,0)"
>
</g>

<g fill="#000000" fill-opacity="1" stroke="#000000" stroke-opacity="1" stroke-width="1" stroke-linecap="square" stroke-linejoin="miter" stroke-miterlimit="2" transform="matrix(1,0,0,1,0,0)"
>
</g>

<g fill="#151515" fill-opacity="1" stroke="none" transform="matrix(1,0,0,1,0,0)"
>
<path vector-effect="none" fill-rule="evenodd" d="M0,0 L1200,0 L1200,243 L0,243 L0,0"/>
</g>

<g fill="#1f90fb" fill-opacity="1" stroke="none" transform="matrix(1,0,0,1,0,0)"
>
<path vector-effect="none" fill-rule="evenodd" d="M8,77 L1192,77 L1192,80 L8,80 L8,77"/>
</g>

<g fill="#1f90fb" fill-opacity="1" stroke="none" transform="matrix(1,0,0,1,0,0)"
>
<path vector-effect="none" fill-rule="evenodd" d="M8,118 L1192,118 L1192,119 L8,119 L8,118"/>
</g>

<g fill="#1f90fb" fill-opacity="1" stroke="none" transform="matrix(1,0,0,1,0,0)"
>
<path vector-effect="none" fill-rule="evenodd" d="M8,77 L11,77 L11,119 L8,119 L8,77"/>
</g>

<g fill="#1f90fb" fill-opacity="1" stroke="none" transform="matrix(1,0,0,1,0,0)"
>
<path vector-effect="none" fill-rule="evenodd" d="M1189,77 L1192,77 L1192,119 L1189,119 L1189,77"/>
</g>

<g fill="#1f90fb" fill-opacity="1" stroke="none" transform="matrix(1,0,0,1,0,0)"
>
<path vector-effect="none" fill-rule="evenodd" d="M252,141 L948,141 L948,143 L252,143 L252,141"/>
</g>

<g fill="#1f90fb" fill-opacity="1" stroke="none" transform="matrix(1,0,0,1,0,0)"
>
<path vector-effect="none" fill-rule="evenodd" d="M252,233 L948,233 L948,235 L252,235 L252,233"/>
</g>

<g fill="#1f90fb" fill-opacity="1" stroke="none" transform="matrix(1,0,0,1,0,0)"
>
<path vector-effect="none" fill-rule="evenodd" d="M252,141 L254,141 L254,235 L252,235 L252,141"/>
</g>

<g fill="#1f90fb" fill-opacity="1" stroke="none" transform="matrix(1,0,0,1,0,0)"
>
<path vector-effect="none" fill-rule="evenodd" d="M946,141 L948,141 L948,235 L946,235 L946,141"/>
</g>

<g fill="#1460a7" fill-opacity="1" stroke="none" transform="matrix(1,0,0,1,0,0)"
>
<path vector-effect="none" fill-rule="evenodd" d="M256,145 L640,145 L640,146 L256,146 L256,145"/>
</g>

<g fill="#1f90fb" fill-opacity="1" stroke="none" transform="matrix(1,0,0,1,0,0)"
>
<path vector-effect="none" fill-rule="evenodd" d="M256,172 L640,172 L640,173 L256,173 L256,172"/>
</g>

<g fill="#1460a7" fill-opacity="1" stroke="none" transform="matrix(1,0,0,1,0,0)"
>
<path vector-effect="none" fill-rule="evenodd" d="M256,145 L256,173 L257,172 L257,145 L256,145"/>
</g>

<g fill="#1f90fb" fill-opacity="1" stroke="none" transform="matrix(1,0,0,1,0,0)"
>
<path vector-effect="none" fill-rule="evenodd" d="M639,146 L639,173 L640,173 L640,145 L639,146"/>
</g>

<g fill="#1460a7" fill-opacity="1" stroke="none" transform="matrix(1,0,0,1,0,0)"
>
<path vector-effect="none" fill-rule="evenodd" d="M642,145 L788,145 L788,146 L642,146 L642,145"/>
</g>

<g fill="#1f90fb" fill-opacity="1" stroke="none" transform="matrix(1,0,0,1,0,0)"
>
<path vector-effect="none" fill-rule="evenodd" d="M642,172 L788,172 L788,173 L642,173 L642,172"/>
</g>

<g fill="#1460a7" fill-opacity="1" stroke="none" transform="matrix(1,0,0,1,0,0)"
>
<path vector-effect="none" fill-rule="evenodd" d="M642,145 L642,173 L643,172 L643,145 L642,145"/>
</g>

<g fill="#1f90fb" fill-opacity="1" stroke="none" transform="matrix(1,0,0,1,0,0)"
>
<path vector-effect="none" fill-rule="evenodd" d="M787,146 L787,173 L788,173 L788,145 L787,146"/>
</g>

<g fill="#1460a7" fill-opacity="1" stroke="none" transform="matrix(1,0,0,1,0,0)"
>
<path vector-effect="none" fill-rule="evenodd" d="M790,145 L944,145 L944,146 L790,146 L790,145"/>
</g>

<g fill="#1f90fb" fill-opacity="1" stroke="none" transform="matrix(1,0,0,1,0,0)"
>
<path vector-effect="none" fill-rule="evenodd" d="M790,172 L944,172 L944,173 L790,173 L790,172"/>
</g>

<g fill="#1460a7" fill-opacity="1" stroke="none" transform="matrix(1,0,0,1,0,0)"
>
<path vector-effect="none" fill-rule="evenodd" d="M790,145 L790,173 L791,172 L791,145 L790,145"/>
</g>

<g fill="#1f90fb" fill-opacity="1" stroke="none" transform="matrix(1,0,0,1,0,0)"
>
<path vector-effect="none" fill-rule="evenodd" d="M943,146 L943,173 L944,173 L944,145 L943,146"/>
</g>

<g fill="#1460a7" fill-opacity="1" stroke="none" transform="matrix(1,0,0,1,0,0)"
>
<path vector-effect="none" fill-rule="evenodd" d="M256,175 L640,175 L640,176 L256,176 L256,175"/>
</g>

<g fill="#1f90fb" fill-opacity="1" stroke="none" transform="matrix(1,0,0,1,0,0)"
>
<path vector-effect="none" fill-rule="evenodd" d="M256,201 L640,201 L640,202 L256,202 L256,201"/>
</g>

<g fill="#1460a7" fill-opacity="1" stroke="none" transform="matrix(1,0,0,1,0,0)"
>
<path vector-effect="none" fill-rule="evenodd" d="M256,175 L256,202 L257,201 L257,175 L256,175"/>
</g>

<g fill="#1f90fb" fill-opacity="1" stroke="none" transform="matrix(1,0,0,1,0,0)"
>
<path vector-effect="none" fill-rule="evenodd" d="M639,176 L639,202 L640,202 L640,175 L639,176"/>
</g>

<g fill="#1460a7" fill-opacity="1" stroke="none" transform="matrix(1,0,0,1,0,0)"
>
<path vector-effect="none" fill-rule="evenodd" d="M642,175 L788,175 L788,176 L642,176 L642,175"/>
</g>

<g fill="#1f90fb" fill-opacity="1" stroke="none" transform="matrix(1,0,0,1,0,0)"
>
<path vector-effect="none" fill-rule="evenodd" d="M642,201 L788,201 L788,202 L642,202 L642,201"/>
</g>

<g fill="#1460a7" fill-opacity="1" stroke="none" transform="matrix(1,0,0,1,0,0)"
>
<path vector-effect="none" fill-rule="evenodd" d="M642,175 L642,202 L643,201 L643,175 L642,175"/>
</g>

<g fill="#1f90fb" fill-opacity="1" stroke="none" transform="matrix(1,0,0,1,0,0)"
>
<path vector-effect="none" fill-rule="evenodd" d="M787,176 L787,202 L788,202 L788,175 L787,176"/>
</g>

<g fill="#1460a7" fill-opacity="1" stroke="none" transform="matrix(1,0,0,1,0,0)"
>
<path vector-effect="none" fill-rule="evenodd" d="M790,175 L944,175 L944,176 L790,176 L790,175"/>
</g>

<g fill="#1f90fb" fill-opacity="1" stroke="none" transform="matrix(1,0,0,1,0,0)"
>
<path vector-effect="none" fill-rule="evenodd" d="M790,201 L944,201 L944,202 L790,202 L790,201"/>
</g>

<g fill="#1460a7" fill-opacity="1" stroke="none" transform="matrix(1,0,0,1,0,0)"
>
<path vector-effect="none" fill-rule="evenodd" d="M790,175 L790,202 L791,201 L791,175 L790,175"/>
</g>

<g fill="#1f90fb" fill-opacity="1" stroke="none" transform="matrix(1,0,0,1,0,0)"
>
<path vector-effect="none" fill-rule="evenodd" d="M943,176 L943,202 L944,202 L944,175 L943,176"/>
</g>

<g fill="#1460a7" fill-opacity="1" stroke="none" transform="matrix(1,0,0,1,0,0)"
>
<path vector-effect="none" fill-rule="evenodd" d="M256,204 L640,204 L640,205 L256,205 L256,204"/>
</g>

<g fill="#1f90fb" fill-opacity="1" stroke="none" transform="matrix(1,0,0,1,0,0)"
>
<path vector-effect="none" fill-rule="evenodd" d="M256,230 L640,230 L640,231 L256,231 L256,230"/>
</g>

<g fill="#1460a7" fill-opacity="1" stroke="none" transform="matrix(1,0,0,1,0,0)"
>
<path vector-effect="none" fill-rule="evenodd" d="M256,204 L256,231 L257,230 L257,204 L256,204"/>
</g>

<g fill="#1f90fb" fill-opacity="1" stroke="none" transform="matrix(1,0,0,1,0,0)"
>
<path vector-effect="none" fill-rule="evenodd" d="M639,205 L639,231 L640,231 L640,204 L639,205"/>
</g>

<g fill="#1460a7" fill-opacity="1" stroke="none" transform="matrix(1,0,0,1,0,0)"
>
<path vector-effect="none" fill-rule="evenodd" d="M642,204 L788,204 L788,205 L642,205 L642,204"/>
</g>

<g fill="#1f90fb" fill-opacity="1" stroke="none" transform="matrix(1,0,0,1,0,0)"
>
<path vector-effect="none" fill-rule="evenodd" d="M642,230 L788,230 L788,231 L642,231 L642,230"/>
</g>

<g fill="#1460a7" fill-opacity="1" stroke="none" transform="matrix(1,0,0,1,0,0)"
>
<path vector-effect="none" fill-rule="evenodd" d="M642,204 L642,231 L643,230 L643,204 L642,204"/>
</g>

<g fill="#1f90fb" fill-opacity="1" stroke="none" transform="matrix(1,0,0,1,0,0)"
>
<path vector-effect="none" fill-rule="evenodd" d="M787,205 L787,231 L788,231 L788,204 L787,205"/>
</g>

<g fill="#1460a7" fill-opacity="1" stroke="none" transform="matrix(1,0,0,1,0,0)"
>
<path vector-effect="none" fill-rule="evenodd" d="M790,204 L944,204 L944,205 L790,205 L790,204"/>
</g>

<g fill="#1f90fb" fill-opacity="1" stroke="none" transform="matrix(1,0,0,1,0,0)"
>
<path vector-effect="none" fill-rule="evenodd" d="M790,230 L944,230 L944,231 L790,231 L790,230"/>
</g>

<g fill="#1460a7" fill-opacity="1" stroke="none" transform="matrix(1,0,0,1,0,0)"
>
<path vector-effect="none" fill-rule="evenodd" d="M790,204 L790,231 L791,230 L791,204 L790,204"/>
</g>

<g fill="#1f90fb" fill-opacity="1" stroke="none" transform="matrix(1,0,0,1,0,0)"
>
<path vector-effect="none" fill-rule="evenodd" d="M943,205 L943,231 L944,231 L944,204 L943,205"/>
</g>

<g fill="#66fcf1" fill-opacity="1" stroke="#66fcf1" stroke-opacity="1" stroke-width="1" stroke-linecap="square" stroke-linejoin="bevel" transform="matrix(1,0,0,1,0,0)"
>
<text fill="#66fcf1" fill-opacity="1" stroke="none" xml:space="preserve" x="22" y="37" font-family="Arial" font-size="17" font-weight="400" font-style="normal" 
 >Home</text>
</g>

<g fill="#000000" fill-opacity="1" stroke="#000000" stroke-opacity="1" stroke-width="1" stroke-linecap="square" stroke-linejoin="bevel" transform="matrix(1,0,0,1,0,0)"
>
<text fill="#000000" fill-opacity="1" stroke="none" xml:space="preserve" x="78" y="37" font-family="Arial" font-size="16" font-weight="400" font-style="normal" 
 > </text>
</g>

<g fill="#66fcf1" fill-opacity="1" stroke="#66fcf1" stroke-opacity="1" stroke-width="1" stroke-linecap="square" stroke-linejoin="bevel" transform="matrix(1,0,0,1,0,0)"
>
<text fill="#66fcf1" fill-opacity="1" stroke="none" xml:space="preserve" x="96" y="37" font-family="Arial" font-size="17" font-weight="400" font-style="normal" 
 >Lab Groups</text>
</g>

<g fill="#000000" fill-opacity="1" stroke="#000000" stroke-opacity="1" stroke-width="1" stroke-linecap="square" stroke-linejoin="bevel" transform="matrix(1,0,0,1,0,0)"
>
<text fill="#000000" fill-opacity="1" stroke="none" xml:space="preserve" x="195" y="37" font-family="Arial" font-size="16" font-weight="400" font-style="normal" 
 > </text>
</g>

<g fill="#66fcf1" fill-opacity="1" stroke="#66fcf1" stroke-opacity="1" stroke-width="1" stroke-linecap="square" stroke-linejoin="bevel" transform="matrix(1,0,0,1,0,0)"
>
<text fill="#66fcf1" fill-opacity="1" stroke="none" xml:space="preserve" x="213" y="37" font-family="Arial" font-size="17" font-weight="400" font-style="normal" 
 >Assignments</text>
</g>

<g fill="#000000" fill-opacity="1" stroke="#000000" stroke-opacity="1" stroke-width="1" stroke-linecap="square" stroke-linejoin="bevel" transform="matrix(1,0,0,1,0,0)"
>
<text fill="#000000" fill-opacity="1" stroke="none" xml:space="preserve" x="319" y="37" font-family="Arial" font-size="16" font-weight="400" font-style="normal" 
 > </text>
</g>

<g fill="#1e90ff" fill-opacity="1" stroke="none" transform="matrix(1,0,0,1,0,0)"
>
<path vector-effect="none" fill-rule="evenodd" d="M328,8 L426,8 C428.761,8 431,10.2386 431,13 L431,51 C431,53.7614 428.761,56 426,56 L328,56 C325.239,56 323,53.7614 323,51 L323,13 C323,10.2386 325.239,8 328,8 "/>
</g>

<g fill="#ffffff" fill-opacity="1" stroke="#ffffff" stroke-opacity="1" stroke-width="1" stroke-linecap="square" stroke-linejoin="bevel" transform="matrix(1,0,0,1,0,0)"
>
<text fill="#ffffff" fill-opacity="1" stroke="none" xml:space="preserve" x="337" y="37" font-family="Arial" font-size="17" font-weight="400" font-style="normal" 
 >Lab Exams</text>
</g>

<g fill="#000000" fill-opacity="1" stroke="#000000" stroke-opacity="1" stroke-width="1" stroke-linecap="square" stroke-linejoin="bevel" transform="matrix(1,0,0,1,0,0)"
>
<text fill="#000000" fill-opacity="1" stroke="none" xml:space="preserve" x="431" y="37" font-family="Arial" font-size="16" font-weight="400" font-style="normal" 
 > </text>
</g>

<g fill="#66fcf1" fill-opacity="1" stroke="#66fcf1" stroke-opacity="1" stroke-width="1" stroke-linecap="square" stroke-linejoin="bevel" transform="matrix(1,0,0,1,0,0)"
>
<text fill="#66fcf1" fill-opacity="1" stroke="none" xml:space="preserve" x="449" y="37" font-family="Arial" font-size="17" font-weight="400" font-style="normal" 
 >Impartus</text>
</g>

<g fill="#13cefc" fill-opacity="1" stroke="#13cefc" stroke-opacity="1" stroke-width="1" stroke-linecap="square" stroke-linejoin="bevel" transform="matrix(1,0,0,1,0,0)"
>
<text fill="#13cefc" fill-opacity="1" stroke="none" xml:space="preserve" x="515.5" y="110" font-family="Arial" font-size="32" font-weight="700" font-style="normal" 
 >Lab Exams</text>
</g>

<g fill="#13cefc" fill-opacity="1" stroke="#13cefc" stroke-opacity="1" stroke-width="1" stroke-linecap="square" stroke-linejoin="bevel" transform="matrix(1,0,0,1,0,0)"
>
<text fill="#13cefc" fill-opacity="1" stroke="none" xml:space="preserve" x="410" y="164" font-family="Arial" font-size="16" font-weight="700" font-style="normal" 
 >Lab Exam</text>
</g>

<g fill="#13cefc" fill-opacity="1" stroke="#13cefc" stroke-opacity="1" stroke-width="1" stroke-linecap="square" stroke-linejoin="bevel" transform="matrix(1,0,0,1,0,0)"
>
<text fill="#13cefc" fill-opacity="1" stroke="none" xml:space="preserve" x="697" y="164" font-family="Arial" font-size="16" font-weight="700" font-style="normal" 
 >Start</text>
</g>

<g fill="#13cefc" fill-opacity="1" stroke="#13cefc" stroke-opacity="1" stroke-width="1" stroke-linecap="square" stroke-linejoin="bevel" transform="matrix(1,0,0,1,0,0)"
>
<text fill="#13cefc" fill-opacity="1" stroke="none" xml:space="preserve" x="851.5" y="164" font-family="Arial" font-size="16" font-weight="700" font-style="normal" 
 >End</text>
</g>

<g fill="#1177fd" fill-opacity="1" stroke="#1177fd" stroke-opacity="1" stroke-width="1" stroke-linecap="square" stroke-linejoin="bevel" transform="matrix(1,0,0,1,0,0)"
>
<text fill="#1177fd" fill-opacity="1" stroke="none" xml:space="preserve" x="260" y="194" font-family="Arial" font-size="16" font-weight="400" font-style="normal" 
 >Mock Lab Exam Instructions</text>
</g>

<g fill="#1177fd" fill-opacity="1" stroke="#1177fd" stroke-opacity="1" stroke-width="1" stroke-linecap="square" stroke-linejoin="miter" stroke-miterlimit="2" transform="matrix(1,0,0,1,0,0)"
>
<polyline fill="none" vector-effect="none" points="260,195.5 453,195.5 " />
</g>

<g fill="#66fcf1" fill-opacity="1" stroke="#66fcf1" stroke-opacity="1" stroke-width="1" stroke-linecap="square" stroke-linejoin="bevel" transform="matrix(1,0,0,1,0,0)"
>
<text fill="#66fcf1" fill-opacity="1" stroke="none" xml:space="preserve" x="646" y="194" font-family="Arial" font-size="16" font-weight="400" font-style="normal" 
 >23rd March 10 am</text>
</g>

<g fill="#66fcf1" fill-opacity="1" stroke="#66fcf1" stroke-opacity="1" stroke-width="1" stroke-linecap="square" stroke-linejoin="bevel" transform="matrix(1,0,0,1,0,0)"
>
<text fill="#66fcf1" fill-opacity="1" stroke="none" xml:space="preserve" x="794" y="194" font-family="Arial" font-size="16" font-weight="400" font-style="normal" 
 >24th March 11.59 pm</text>
</g>

<g fill="#1177fd" fill-opacity="1" stroke="#1177fd" stroke-opacity="1" stroke-width="1" stroke-linecap="square" stroke-linejoin="bevel" transform="matrix(1,0,0,1,0,0)"
>
<text fill="#1177fd" fill-opacity="1" stroke="none" xml:space="preserve" x="260" y="223" font-family="Arial" font-size="16" font-weight="400" font-style="normal" 
 >Lab Exam-1 Instructions</text>
</g>

<g fill="#1177fd" fill-opacity="1" stroke="#1177fd" stroke-opacity="1" stroke-width="1" stroke-linecap="square" stroke-linejoin="miter" stroke-miterlimit="2" transform="matrix(1,0,0,1,0,0)"
>
<polyline fill="none" vector-effect="none" points="260,224.5 425,224.5 " />
</g>

<g fill="#66fcf1" fill-opacity="1" stroke="#66fcf1" stroke-opacity="1" stroke-width="1" stroke-linecap="square" stroke-linejoin="bevel" transform="matrix(1,0,0,1,0,0)"
>
<text fill="#66fcf1" fill-opacity="1" stroke="none" xml:space="preserve" x="426" y="223" font-family="Arial" font-size="16" font-weight="400" font-style="normal" 
 > </text>
</g>

<g fill="#66fcf1" fill-opacity="1" stroke="#66fcf1" stroke-opacity="1" stroke-width="1" stroke-linecap="square" stroke-linejoin="bevel" transform="matrix(1,0,0,1,0,0)"
>
<text fill="#66fcf1" fill-opacity="1" stroke="none" xml:space="preserve" x="430" y="223" font-family="Arial" font-size="16" font-weight="400" font-style="normal" 
 >, </text>
</g>

<g fill="#1177fd" fill-opacity="1" stroke="#1177fd" stroke-opacity="1" stroke-width="1" stroke-linecap="square" stroke-linejoin="bevel" transform="matrix(1,0,0,1,0,0)"
>
<text fill="#1177fd" fill-opacity="1" stroke="none" xml:space="preserve" x="438" y="223" font-family="Arial" font-size="16" font-weight="400" font-style="normal" 
 >Lab Exam-1 Question Paper</text>
</g>

<g fill="#1177fd" fill-opacity="1" stroke="#1177fd" stroke-opacity="1" stroke-width="1" stroke-linecap="square" stroke-linejoin="miter" stroke-miterlimit="2" transform="matrix(1,0,0,1,0,0)"
>
<polyline fill="none" vector-effect="none" points="438,224.5 635,224.5 " />
</g>

<g fill="#66fcf1" fill-opacity="1" stroke="#66fcf1" stroke-opacity="1" stroke-width="1" stroke-linecap="square" stroke-linejoin="bevel" transform="matrix(1,0,0,1,0,0)"
>
<text fill="#66fcf1" fill-opacity="1" stroke="none" xml:space="preserve" x="646" y="223" font-family="Arial" font-size="16" font-weight="400" font-style="normal" 
 >27th March 3:30 pm</text>
</g>

<g fill="#66fcf1" fill-opacity="1" stroke="#66fcf1" stroke-opacity="1" stroke-width="1" stroke-linecap="square" stroke-linejoin="bevel" transform="matrix(1,0,0,1,0,0)"
>
<text fill="#66fcf1" fill-opacity="1" stroke="none" xml:space="preserve" x="794" y="223" font-family="Arial" font-size="16" font-weight="400" font-style="normal" 
 >27th March 5:00 pm</text>
</g>

<g fill="#000000" fill-opacity="1" stroke="#000000" stroke-opacity="1" stroke-width="1" stroke-linecap="square" stroke-linejoin="miter" stroke-miterlimit="2" transform="matrix(1,0,0,1,0,0)"
>
</g>

<g fill="#000000" fill-opacity="1" stroke="#000000" stroke-opacity="1" stroke-width="1" stroke-linecap="square" stroke-linejoin="miter" stroke-miterlimit="2" transform="matrix(1,0,0,1,0,0)"
>
</g>

<g fill="#000000" fill-opacity="1" stroke="#000000" stroke-opacity="1" stroke-width="1" stroke-linecap="square" stroke-linejoin="miter" stroke-miterlimit="2" transform="matrix(1,0,0,1,0,0)"
>
</g>
</g>
</svg>
